<mxfile host="app.diagrams.net" modified="2024-02-02T16:37:19.431Z" agent="Mozilla/5.0 (Windows NT 10.0; Win64; x64) AppleWebKit/537.36 (KHTML, like Gecko) Chrome/120.0.0.0 Safari/537.36" etag="IZwCdi1eLMT6NQW_f96Z" version="23.1.1" type="device">
  <diagram name="Trang-1" id="v9X9ZrAo8wuDWsqPdvZ8">
    <mxGraphModel dx="4500" dy="1897" grid="1" gridSize="10" guides="1" tooltips="1" connect="1" arrows="1" fold="1" page="0" pageScale="1" pageWidth="827" pageHeight="1169" math="0" shadow="0">
      <root>
        <mxCell id="0" />
        <mxCell id="1" parent="0" />
        <mxCell id="MoQPxjxc0kEaCH0tuq0D-7" value="AdministratorAccount" style="whiteSpace=wrap;html=1;align=center;fontSize=16;" parent="1" vertex="1">
          <mxGeometry x="-240" y="270" width="175" height="50" as="geometry" />
        </mxCell>
        <mxCell id="MoQPxjxc0kEaCH0tuq0D-9" value="List of User Accounts" style="whiteSpace=wrap;html=1;align=center;fontSize=16;" parent="1" vertex="1">
          <mxGeometry x="540" y="260" width="130" height="70" as="geometry" />
        </mxCell>
        <mxCell id="MoQPxjxc0kEaCH0tuq0D-10" value="Manage" style="shape=rhombus;perimeter=rhombusPerimeter;whiteSpace=wrap;html=1;align=center;fontSize=16;" parent="1" vertex="1">
          <mxGeometry x="150" y="265" width="120" height="60" as="geometry" />
        </mxCell>
        <mxCell id="MoQPxjxc0kEaCH0tuq0D-11" value="" style="endArrow=none;html=1;rounded=0;fontSize=12;startSize=8;endSize=8;curved=1;exitX=1;exitY=0.5;exitDx=0;exitDy=0;entryX=0;entryY=0.5;entryDx=0;entryDy=0;" parent="1" source="MoQPxjxc0kEaCH0tuq0D-7" target="MoQPxjxc0kEaCH0tuq0D-10" edge="1">
          <mxGeometry relative="1" as="geometry">
            <mxPoint x="10" y="294.5" as="sourcePoint" />
            <mxPoint x="170" y="294.5" as="targetPoint" />
          </mxGeometry>
        </mxCell>
        <mxCell id="MoQPxjxc0kEaCH0tuq0D-12" value="N" style="resizable=0;html=1;whiteSpace=wrap;align=right;verticalAlign=bottom;fontSize=16;" parent="MoQPxjxc0kEaCH0tuq0D-11" connectable="0" vertex="1">
          <mxGeometry x="1" relative="1" as="geometry">
            <mxPoint x="-90" as="offset" />
          </mxGeometry>
        </mxCell>
        <mxCell id="MoQPxjxc0kEaCH0tuq0D-13" value="" style="endArrow=none;html=1;rounded=0;fontSize=12;startSize=8;endSize=8;curved=1;entryX=0;entryY=0.5;entryDx=0;entryDy=0;exitX=1;exitY=0.5;exitDx=0;exitDy=0;" parent="1" source="MoQPxjxc0kEaCH0tuq0D-10" target="MoQPxjxc0kEaCH0tuq0D-9" edge="1">
          <mxGeometry relative="1" as="geometry">
            <mxPoint x="210.00000000000023" y="294.09" as="sourcePoint" />
            <mxPoint x="480" y="294.09" as="targetPoint" />
          </mxGeometry>
        </mxCell>
        <mxCell id="MoQPxjxc0kEaCH0tuq0D-14" value="1" style="resizable=0;html=1;whiteSpace=wrap;align=right;verticalAlign=bottom;fontSize=16;" parent="MoQPxjxc0kEaCH0tuq0D-13" connectable="0" vertex="1">
          <mxGeometry x="1" relative="1" as="geometry">
            <mxPoint x="-131" as="offset" />
          </mxGeometry>
        </mxCell>
        <mxCell id="MoQPxjxc0kEaCH0tuq0D-16" value="Log in" style="ellipse;whiteSpace=wrap;html=1;align=center;fontSize=16;" parent="1" vertex="1">
          <mxGeometry x="-590" y="220" width="80" height="40" as="geometry" />
        </mxCell>
        <mxCell id="MoQPxjxc0kEaCH0tuq0D-17" value="Log out" style="ellipse;whiteSpace=wrap;html=1;align=center;fontSize=16;" parent="1" vertex="1">
          <mxGeometry x="-600" y="30" width="90" height="40" as="geometry" />
        </mxCell>
        <mxCell id="MoQPxjxc0kEaCH0tuq0D-18" value="view" style="ellipse;whiteSpace=wrap;html=1;align=center;fontSize=16;" parent="1" vertex="1">
          <mxGeometry x="105" y="220" width="80" height="40" as="geometry" />
        </mxCell>
        <mxCell id="MoQPxjxc0kEaCH0tuq0D-19" value="Search for a user" style="ellipse;whiteSpace=wrap;html=1;align=center;fontSize=16;" parent="1" vertex="1">
          <mxGeometry x="280" y="150" width="130" height="60" as="geometry" />
        </mxCell>
        <mxCell id="MoQPxjxc0kEaCH0tuq0D-20" value="Sort list" style="ellipse;whiteSpace=wrap;html=1;align=center;fontSize=16;" parent="1" vertex="1">
          <mxGeometry x="280" y="220" width="100" height="50" as="geometry" />
        </mxCell>
        <mxCell id="MoQPxjxc0kEaCH0tuq0D-21" value="Add" style="ellipse;whiteSpace=wrap;html=1;align=center;fontSize=16;" parent="1" vertex="1">
          <mxGeometry x="90" y="410" width="80" height="40" as="geometry" />
        </mxCell>
        <mxCell id="MoQPxjxc0kEaCH0tuq0D-22" value="EmployeeAccount" style="whiteSpace=wrap;html=1;align=center;fontSize=16;" parent="1" vertex="1">
          <mxGeometry x="-240" y="1020" width="150" height="50" as="geometry" />
        </mxCell>
        <mxCell id="MoQPxjxc0kEaCH0tuq0D-29" value="Manage" style="shape=rhombus;perimeter=rhombusPerimeter;whiteSpace=wrap;html=1;align=center;fontSize=16;" parent="1" vertex="1">
          <mxGeometry x="150" y="480" width="120" height="60" as="geometry" />
        </mxCell>
        <mxCell id="MoQPxjxc0kEaCH0tuq0D-30" value="" style="endArrow=none;html=1;rounded=0;fontSize=12;startSize=8;endSize=8;curved=1;exitX=1;exitY=0.5;exitDx=0;exitDy=0;entryX=0;entryY=0.5;entryDx=0;entryDy=0;" parent="1" source="MoQPxjxc0kEaCH0tuq0D-7" target="MoQPxjxc0kEaCH0tuq0D-29" edge="1">
          <mxGeometry relative="1" as="geometry">
            <mxPoint x="-65" y="440" as="sourcePoint" />
            <mxPoint x="170" y="439.5" as="targetPoint" />
          </mxGeometry>
        </mxCell>
        <mxCell id="MoQPxjxc0kEaCH0tuq0D-31" value="N" style="resizable=0;html=1;whiteSpace=wrap;align=right;verticalAlign=bottom;fontSize=16;" parent="MoQPxjxc0kEaCH0tuq0D-30" connectable="0" vertex="1">
          <mxGeometry x="1" relative="1" as="geometry">
            <mxPoint x="-90" y="-100" as="offset" />
          </mxGeometry>
        </mxCell>
        <mxCell id="MoQPxjxc0kEaCH0tuq0D-32" value="" style="endArrow=none;html=1;rounded=0;fontSize=12;startSize=8;endSize=8;curved=1;exitX=1;exitY=0.5;exitDx=0;exitDy=0;entryX=0;entryY=0.5;entryDx=0;entryDy=0;" parent="1" source="MoQPxjxc0kEaCH0tuq0D-29" target="gzQTVmxqFmnyjNceLkpb-125" edge="1">
          <mxGeometry relative="1" as="geometry">
            <mxPoint x="210.00000000000023" y="439.09" as="sourcePoint" />
            <mxPoint x="490" y="790" as="targetPoint" />
          </mxGeometry>
        </mxCell>
        <mxCell id="MoQPxjxc0kEaCH0tuq0D-33" value="1" style="resizable=0;html=1;whiteSpace=wrap;align=right;verticalAlign=bottom;fontSize=16;" parent="MoQPxjxc0kEaCH0tuq0D-32" connectable="0" vertex="1">
          <mxGeometry x="1" relative="1" as="geometry">
            <mxPoint x="-100" y="-85" as="offset" />
          </mxGeometry>
        </mxCell>
        <mxCell id="MoQPxjxc0kEaCH0tuq0D-34" value="contains" style="shape=rhombus;perimeter=rhombusPerimeter;whiteSpace=wrap;html=1;align=center;fontSize=16;rotation=90;" parent="1" vertex="1">
          <mxGeometry x="545" y="520" width="120" height="60" as="geometry" />
        </mxCell>
        <mxCell id="MoQPxjxc0kEaCH0tuq0D-35" value="" style="endArrow=none;html=1;rounded=0;fontSize=12;startSize=8;endSize=8;curved=1;exitX=1;exitY=0.5;exitDx=0;exitDy=0;entryX=0.5;entryY=0;entryDx=0;entryDy=0;" parent="1" source="MoQPxjxc0kEaCH0tuq0D-34" target="gzQTVmxqFmnyjNceLkpb-125" edge="1">
          <mxGeometry relative="1" as="geometry">
            <mxPoint x="-55" y="305" as="sourcePoint" />
            <mxPoint x="605" y="780" as="targetPoint" />
          </mxGeometry>
        </mxCell>
        <mxCell id="MoQPxjxc0kEaCH0tuq0D-36" value="N" style="resizable=0;html=1;whiteSpace=wrap;align=right;verticalAlign=bottom;fontSize=16;" parent="MoQPxjxc0kEaCH0tuq0D-35" connectable="0" vertex="1">
          <mxGeometry x="1" relative="1" as="geometry">
            <mxPoint x="-5" y="-80" as="offset" />
          </mxGeometry>
        </mxCell>
        <mxCell id="MoQPxjxc0kEaCH0tuq0D-37" value="" style="endArrow=none;html=1;rounded=0;fontSize=12;startSize=8;endSize=8;curved=1;entryX=0;entryY=0.5;entryDx=0;entryDy=0;exitX=0.5;exitY=1;exitDx=0;exitDy=0;" parent="1" source="MoQPxjxc0kEaCH0tuq0D-9" target="MoQPxjxc0kEaCH0tuq0D-34" edge="1">
          <mxGeometry relative="1" as="geometry">
            <mxPoint x="280" y="305" as="sourcePoint" />
            <mxPoint x="550" y="305" as="targetPoint" />
          </mxGeometry>
        </mxCell>
        <mxCell id="MoQPxjxc0kEaCH0tuq0D-38" value="1" style="resizable=0;html=1;whiteSpace=wrap;align=right;verticalAlign=bottom;fontSize=16;" parent="MoQPxjxc0kEaCH0tuq0D-37" connectable="0" vertex="1">
          <mxGeometry x="1" relative="1" as="geometry">
            <mxPoint y="-50" as="offset" />
          </mxGeometry>
        </mxCell>
        <mxCell id="MoQPxjxc0kEaCH0tuq0D-39" value="Disable" style="ellipse;whiteSpace=wrap;html=1;align=center;fontSize=16;" parent="1" vertex="1">
          <mxGeometry x="280" y="360" width="100" height="50" as="geometry" />
        </mxCell>
        <mxCell id="MoQPxjxc0kEaCH0tuq0D-40" value="Enable" style="ellipse;whiteSpace=wrap;html=1;align=center;fontSize=16;" parent="1" vertex="1">
          <mxGeometry x="280" y="420" width="100" height="50" as="geometry" />
        </mxCell>
        <mxCell id="MoQPxjxc0kEaCH0tuq0D-41" value="Reset password" style="ellipse;whiteSpace=wrap;html=1;align=center;fontSize=16;" parent="1" vertex="1">
          <mxGeometry x="75" y="630" width="110" height="60" as="geometry" />
        </mxCell>
        <mxCell id="MoQPxjxc0kEaCH0tuq0D-42" value="Update information" style="ellipse;whiteSpace=wrap;html=1;align=center;fontSize=16;" parent="1" vertex="1">
          <mxGeometry x="55" y="550" width="130" height="70" as="geometry" />
        </mxCell>
        <mxCell id="MoQPxjxc0kEaCH0tuq0D-43" value="" style="endArrow=none;html=1;rounded=0;fontSize=12;startSize=8;endSize=8;curved=1;entryX=1;entryY=0.5;entryDx=0;entryDy=0;exitX=0.5;exitY=0;exitDx=0;exitDy=0;" parent="1" source="MoQPxjxc0kEaCH0tuq0D-10" target="MoQPxjxc0kEaCH0tuq0D-18" edge="1">
          <mxGeometry relative="1" as="geometry">
            <mxPoint x="-60" y="400" as="sourcePoint" />
            <mxPoint x="100" y="400" as="targetPoint" />
          </mxGeometry>
        </mxCell>
        <mxCell id="MoQPxjxc0kEaCH0tuq0D-44" value="" style="endArrow=none;html=1;rounded=0;fontSize=12;startSize=8;endSize=8;curved=1;entryX=0;entryY=0.5;entryDx=0;entryDy=0;exitX=0.5;exitY=0;exitDx=0;exitDy=0;" parent="1" source="MoQPxjxc0kEaCH0tuq0D-10" target="MoQPxjxc0kEaCH0tuq0D-19" edge="1">
          <mxGeometry relative="1" as="geometry">
            <mxPoint x="-60" y="400" as="sourcePoint" />
            <mxPoint x="100" y="400" as="targetPoint" />
          </mxGeometry>
        </mxCell>
        <mxCell id="MoQPxjxc0kEaCH0tuq0D-45" value="" style="endArrow=none;html=1;rounded=0;fontSize=12;startSize=8;endSize=8;curved=1;entryX=0;entryY=0.5;entryDx=0;entryDy=0;exitX=0.5;exitY=0;exitDx=0;exitDy=0;" parent="1" source="MoQPxjxc0kEaCH0tuq0D-10" target="MoQPxjxc0kEaCH0tuq0D-20" edge="1">
          <mxGeometry relative="1" as="geometry">
            <mxPoint x="-60" y="400" as="sourcePoint" />
            <mxPoint x="100" y="400" as="targetPoint" />
          </mxGeometry>
        </mxCell>
        <mxCell id="MoQPxjxc0kEaCH0tuq0D-46" value="" style="endArrow=none;html=1;rounded=0;fontSize=12;startSize=8;endSize=8;curved=1;entryX=0.5;entryY=0;entryDx=0;entryDy=0;exitX=1;exitY=0.5;exitDx=0;exitDy=0;" parent="1" source="MoQPxjxc0kEaCH0tuq0D-21" target="MoQPxjxc0kEaCH0tuq0D-29" edge="1">
          <mxGeometry relative="1" as="geometry">
            <mxPoint x="-60" y="480" as="sourcePoint" />
            <mxPoint x="100" y="480" as="targetPoint" />
          </mxGeometry>
        </mxCell>
        <mxCell id="MoQPxjxc0kEaCH0tuq0D-47" value="" style="endArrow=none;html=1;rounded=0;fontSize=12;startSize=8;endSize=8;curved=1;entryX=0;entryY=0.5;entryDx=0;entryDy=0;exitX=0.5;exitY=0;exitDx=0;exitDy=0;" parent="1" source="MoQPxjxc0kEaCH0tuq0D-29" target="MoQPxjxc0kEaCH0tuq0D-39" edge="1">
          <mxGeometry relative="1" as="geometry">
            <mxPoint x="-60" y="480" as="sourcePoint" />
            <mxPoint x="100" y="480" as="targetPoint" />
          </mxGeometry>
        </mxCell>
        <mxCell id="MoQPxjxc0kEaCH0tuq0D-48" value="" style="endArrow=none;html=1;rounded=0;fontSize=12;startSize=8;endSize=8;curved=1;entryX=0;entryY=0.5;entryDx=0;entryDy=0;exitX=0.5;exitY=0;exitDx=0;exitDy=0;" parent="1" source="MoQPxjxc0kEaCH0tuq0D-29" target="MoQPxjxc0kEaCH0tuq0D-40" edge="1">
          <mxGeometry relative="1" as="geometry">
            <mxPoint x="-60" y="480" as="sourcePoint" />
            <mxPoint x="100" y="480" as="targetPoint" />
          </mxGeometry>
        </mxCell>
        <mxCell id="MoQPxjxc0kEaCH0tuq0D-49" value="" style="endArrow=none;html=1;rounded=0;fontSize=12;startSize=8;endSize=8;curved=1;entryX=0.5;entryY=1;entryDx=0;entryDy=0;exitX=1;exitY=0.5;exitDx=0;exitDy=0;" parent="1" source="MoQPxjxc0kEaCH0tuq0D-41" target="MoQPxjxc0kEaCH0tuq0D-29" edge="1">
          <mxGeometry relative="1" as="geometry">
            <mxPoint x="-10" y="550" as="sourcePoint" />
            <mxPoint x="150" y="550" as="targetPoint" />
          </mxGeometry>
        </mxCell>
        <mxCell id="MoQPxjxc0kEaCH0tuq0D-50" value="" style="endArrow=none;html=1;rounded=0;fontSize=12;startSize=8;endSize=8;curved=1;exitX=1;exitY=0.5;exitDx=0;exitDy=0;" parent="1" source="MoQPxjxc0kEaCH0tuq0D-42" edge="1">
          <mxGeometry relative="1" as="geometry">
            <mxPoint x="-10" y="550" as="sourcePoint" />
            <mxPoint x="210" y="540" as="targetPoint" />
          </mxGeometry>
        </mxCell>
        <mxCell id="gzQTVmxqFmnyjNceLkpb-1" value="BookStoreManagemment&lt;br&gt;System" style="whiteSpace=wrap;html=1;align=center;fontSize=16;" parent="1" vertex="1">
          <mxGeometry x="-760" y="760" width="200" height="70" as="geometry" />
        </mxCell>
        <mxCell id="gzQTVmxqFmnyjNceLkpb-3" value="Used for" style="shape=rhombus;perimeter=rhombusPerimeter;whiteSpace=wrap;html=1;align=center;fontSize=16;" parent="1" vertex="1">
          <mxGeometry x="-490" y="265" width="120" height="60" as="geometry" />
        </mxCell>
        <mxCell id="gzQTVmxqFmnyjNceLkpb-6" value="" style="endArrow=none;html=1;rounded=0;fontSize=12;startSize=8;endSize=8;curved=1;exitX=1;exitY=0.5;exitDx=0;exitDy=0;entryX=0;entryY=0.5;entryDx=0;entryDy=0;" parent="1" source="gzQTVmxqFmnyjNceLkpb-1" target="gzQTVmxqFmnyjNceLkpb-3" edge="1">
          <mxGeometry relative="1" as="geometry">
            <mxPoint x="-630" y="289.16999999999996" as="sourcePoint" />
            <mxPoint x="-470" y="289.16999999999996" as="targetPoint" />
          </mxGeometry>
        </mxCell>
        <mxCell id="gzQTVmxqFmnyjNceLkpb-7" value="1" style="resizable=0;html=1;whiteSpace=wrap;align=right;verticalAlign=bottom;fontSize=16;" parent="gzQTVmxqFmnyjNceLkpb-6" connectable="0" vertex="1">
          <mxGeometry x="1" relative="1" as="geometry">
            <mxPoint x="-30" y="196" as="offset" />
          </mxGeometry>
        </mxCell>
        <mxCell id="gzQTVmxqFmnyjNceLkpb-8" value="" style="endArrow=none;html=1;rounded=0;fontSize=12;startSize=8;endSize=8;curved=1;exitX=1;exitY=0.5;exitDx=0;exitDy=0;entryX=0;entryY=0.5;entryDx=0;entryDy=0;" parent="1" source="gzQTVmxqFmnyjNceLkpb-3" target="MoQPxjxc0kEaCH0tuq0D-7" edge="1">
          <mxGeometry relative="1" as="geometry">
            <mxPoint x="-370" y="294.58" as="sourcePoint" />
            <mxPoint x="-210" y="294.58" as="targetPoint" />
          </mxGeometry>
        </mxCell>
        <mxCell id="gzQTVmxqFmnyjNceLkpb-9" value="N" style="resizable=0;html=1;whiteSpace=wrap;align=right;verticalAlign=bottom;fontSize=16;" parent="gzQTVmxqFmnyjNceLkpb-8" connectable="0" vertex="1">
          <mxGeometry x="1" relative="1" as="geometry">
            <mxPoint x="-75" as="offset" />
          </mxGeometry>
        </mxCell>
        <mxCell id="gzQTVmxqFmnyjNceLkpb-11" value="Update information" style="ellipse;whiteSpace=wrap;html=1;align=center;fontSize=16;" parent="1" vertex="1">
          <mxGeometry x="-640" y="150" width="130" height="60" as="geometry" />
        </mxCell>
        <mxCell id="gzQTVmxqFmnyjNceLkpb-12" value="Change password" style="ellipse;whiteSpace=wrap;html=1;align=center;fontSize=16;" parent="1" vertex="1">
          <mxGeometry x="-640" y="85" width="130" height="50" as="geometry" />
        </mxCell>
        <mxCell id="gzQTVmxqFmnyjNceLkpb-13" value="" style="endArrow=none;html=1;rounded=0;fontSize=12;startSize=8;endSize=8;curved=1;exitX=1;exitY=0.5;exitDx=0;exitDy=0;entryX=0.5;entryY=0;entryDx=0;entryDy=0;" parent="1" source="MoQPxjxc0kEaCH0tuq0D-16" target="gzQTVmxqFmnyjNceLkpb-3" edge="1">
          <mxGeometry relative="1" as="geometry">
            <mxPoint x="-380" y="350" as="sourcePoint" />
            <mxPoint x="-220" y="350" as="targetPoint" />
          </mxGeometry>
        </mxCell>
        <mxCell id="gzQTVmxqFmnyjNceLkpb-14" value="" style="endArrow=none;html=1;rounded=0;fontSize=12;startSize=8;endSize=8;curved=1;exitX=1;exitY=0.5;exitDx=0;exitDy=0;entryX=0.5;entryY=0;entryDx=0;entryDy=0;" parent="1" source="gzQTVmxqFmnyjNceLkpb-11" target="gzQTVmxqFmnyjNceLkpb-3" edge="1">
          <mxGeometry relative="1" as="geometry">
            <mxPoint x="-500" y="250" as="sourcePoint" />
            <mxPoint x="-400" y="250" as="targetPoint" />
          </mxGeometry>
        </mxCell>
        <mxCell id="gzQTVmxqFmnyjNceLkpb-15" value="" style="endArrow=none;html=1;rounded=0;fontSize=12;startSize=8;endSize=8;curved=1;exitX=1;exitY=0.5;exitDx=0;exitDy=0;entryX=0.5;entryY=0;entryDx=0;entryDy=0;" parent="1" source="gzQTVmxqFmnyjNceLkpb-12" target="gzQTVmxqFmnyjNceLkpb-3" edge="1">
          <mxGeometry relative="1" as="geometry">
            <mxPoint x="-439" y="221" as="sourcePoint" />
            <mxPoint x="-390" y="260" as="targetPoint" />
          </mxGeometry>
        </mxCell>
        <mxCell id="gzQTVmxqFmnyjNceLkpb-16" value="" style="endArrow=none;html=1;rounded=0;fontSize=12;startSize=8;endSize=8;curved=1;exitX=1;exitY=0.5;exitDx=0;exitDy=0;entryX=0.5;entryY=0;entryDx=0;entryDy=0;" parent="1" source="MoQPxjxc0kEaCH0tuq0D-17" target="gzQTVmxqFmnyjNceLkpb-3" edge="1">
          <mxGeometry relative="1" as="geometry">
            <mxPoint x="-371" y="203" as="sourcePoint" />
            <mxPoint x="-440" y="270" as="targetPoint" />
          </mxGeometry>
        </mxCell>
        <mxCell id="gzQTVmxqFmnyjNceLkpb-17" value="Log in" style="ellipse;whiteSpace=wrap;html=1;align=center;fontSize=16;" parent="1" vertex="1">
          <mxGeometry x="-350" y="1150" width="95" height="40" as="geometry" />
        </mxCell>
        <mxCell id="gzQTVmxqFmnyjNceLkpb-18" value="Log out" style="ellipse;whiteSpace=wrap;html=1;align=center;fontSize=16;" parent="1" vertex="1">
          <mxGeometry x="-350" y="1100" width="90" height="40" as="geometry" />
        </mxCell>
        <mxCell id="gzQTVmxqFmnyjNceLkpb-19" value="Used for" style="shape=rhombus;perimeter=rhombusPerimeter;whiteSpace=wrap;html=1;align=center;fontSize=16;" parent="1" vertex="1">
          <mxGeometry x="-490" y="1015" width="120" height="60" as="geometry" />
        </mxCell>
        <mxCell id="gzQTVmxqFmnyjNceLkpb-20" value="" style="endArrow=none;html=1;rounded=0;fontSize=12;startSize=8;endSize=8;curved=1;entryX=0;entryY=0.5;entryDx=0;entryDy=0;exitX=1;exitY=0.5;exitDx=0;exitDy=0;" parent="1" source="gzQTVmxqFmnyjNceLkpb-1" target="gzQTVmxqFmnyjNceLkpb-19" edge="1">
          <mxGeometry relative="1" as="geometry">
            <mxPoint x="-500" y="795" as="sourcePoint" />
            <mxPoint x="-470" y="1039.17" as="targetPoint" />
          </mxGeometry>
        </mxCell>
        <mxCell id="gzQTVmxqFmnyjNceLkpb-21" value="1" style="resizable=0;html=1;whiteSpace=wrap;align=right;verticalAlign=bottom;fontSize=16;" parent="gzQTVmxqFmnyjNceLkpb-20" connectable="0" vertex="1">
          <mxGeometry x="1" relative="1" as="geometry">
            <mxPoint x="-40" y="-95" as="offset" />
          </mxGeometry>
        </mxCell>
        <mxCell id="gzQTVmxqFmnyjNceLkpb-22" value="" style="endArrow=none;html=1;rounded=0;fontSize=12;startSize=8;endSize=8;curved=1;exitX=1;exitY=0.5;exitDx=0;exitDy=0;entryX=0;entryY=0.5;entryDx=0;entryDy=0;" parent="1" source="gzQTVmxqFmnyjNceLkpb-19" target="MoQPxjxc0kEaCH0tuq0D-22" edge="1">
          <mxGeometry relative="1" as="geometry">
            <mxPoint x="-370" y="1044.58" as="sourcePoint" />
            <mxPoint x="-240" y="1045" as="targetPoint" />
          </mxGeometry>
        </mxCell>
        <mxCell id="gzQTVmxqFmnyjNceLkpb-23" value="N" style="resizable=0;html=1;whiteSpace=wrap;align=right;verticalAlign=bottom;fontSize=16;" parent="gzQTVmxqFmnyjNceLkpb-22" connectable="0" vertex="1">
          <mxGeometry x="1" relative="1" as="geometry">
            <mxPoint x="-75" as="offset" />
          </mxGeometry>
        </mxCell>
        <mxCell id="gzQTVmxqFmnyjNceLkpb-24" value="Update information" style="ellipse;whiteSpace=wrap;html=1;align=center;fontSize=16;" parent="1" vertex="1">
          <mxGeometry x="-350" y="1200" width="130" height="60" as="geometry" />
        </mxCell>
        <mxCell id="gzQTVmxqFmnyjNceLkpb-25" value="Change password" style="ellipse;whiteSpace=wrap;html=1;align=center;fontSize=16;" parent="1" vertex="1">
          <mxGeometry x="-600" y="1110" width="130" height="50" as="geometry" />
        </mxCell>
        <mxCell id="gzQTVmxqFmnyjNceLkpb-26" value="" style="endArrow=none;html=1;rounded=0;fontSize=12;startSize=8;endSize=8;curved=1;exitX=0;exitY=0.5;exitDx=0;exitDy=0;entryX=0.5;entryY=1;entryDx=0;entryDy=0;" parent="1" source="gzQTVmxqFmnyjNceLkpb-17" target="gzQTVmxqFmnyjNceLkpb-19" edge="1">
          <mxGeometry relative="1" as="geometry">
            <mxPoint x="-380" y="1100" as="sourcePoint" />
            <mxPoint x="-220" y="1100" as="targetPoint" />
          </mxGeometry>
        </mxCell>
        <mxCell id="gzQTVmxqFmnyjNceLkpb-27" value="" style="endArrow=none;html=1;rounded=0;fontSize=12;startSize=8;endSize=8;curved=1;exitX=0;exitY=0.5;exitDx=0;exitDy=0;entryX=0.5;entryY=1;entryDx=0;entryDy=0;" parent="1" source="gzQTVmxqFmnyjNceLkpb-24" target="gzQTVmxqFmnyjNceLkpb-19" edge="1">
          <mxGeometry relative="1" as="geometry">
            <mxPoint x="-500" y="1000" as="sourcePoint" />
            <mxPoint x="-400" y="1000" as="targetPoint" />
          </mxGeometry>
        </mxCell>
        <mxCell id="gzQTVmxqFmnyjNceLkpb-28" value="" style="endArrow=none;html=1;rounded=0;fontSize=12;startSize=8;endSize=8;curved=1;exitX=1;exitY=0.5;exitDx=0;exitDy=0;entryX=0.5;entryY=1;entryDx=0;entryDy=0;" parent="1" source="gzQTVmxqFmnyjNceLkpb-25" target="gzQTVmxqFmnyjNceLkpb-19" edge="1">
          <mxGeometry relative="1" as="geometry">
            <mxPoint x="-439" y="971" as="sourcePoint" />
            <mxPoint x="-390" y="1010" as="targetPoint" />
          </mxGeometry>
        </mxCell>
        <mxCell id="gzQTVmxqFmnyjNceLkpb-29" value="" style="endArrow=none;html=1;rounded=0;fontSize=12;startSize=8;endSize=8;curved=1;exitX=0;exitY=0.5;exitDx=0;exitDy=0;entryX=0.5;entryY=1;entryDx=0;entryDy=0;" parent="1" source="gzQTVmxqFmnyjNceLkpb-18" target="gzQTVmxqFmnyjNceLkpb-19" edge="1">
          <mxGeometry relative="1" as="geometry">
            <mxPoint x="-371" y="953" as="sourcePoint" />
            <mxPoint x="-440" y="1020" as="targetPoint" />
          </mxGeometry>
        </mxCell>
        <mxCell id="gzQTVmxqFmnyjNceLkpb-31" value="&lt;u&gt;IDAdmin&lt;/u&gt;" style="ellipse;whiteSpace=wrap;html=1;align=center;fontSize=16;" parent="1" vertex="1">
          <mxGeometry x="-300" y="220" width="100" height="40" as="geometry" />
        </mxCell>
        <mxCell id="gzQTVmxqFmnyjNceLkpb-32" value="Username" style="ellipse;whiteSpace=wrap;html=1;align=center;fontSize=16;" parent="1" vertex="1">
          <mxGeometry x="-310" y="170" width="110" height="40" as="geometry" />
        </mxCell>
        <mxCell id="gzQTVmxqFmnyjNceLkpb-33" value="Email" style="ellipse;whiteSpace=wrap;html=1;align=center;fontSize=16;" parent="1" vertex="1">
          <mxGeometry x="-97.5" y="115" width="100" height="40" as="geometry" />
        </mxCell>
        <mxCell id="gzQTVmxqFmnyjNceLkpb-34" value="Password" style="ellipse;whiteSpace=wrap;html=1;align=center;fontSize=16;" parent="1" vertex="1">
          <mxGeometry x="-107.5" y="165" width="110" height="50" as="geometry" />
        </mxCell>
        <mxCell id="gzQTVmxqFmnyjNceLkpb-35" value="" style="endArrow=none;html=1;rounded=0;fontSize=12;startSize=8;endSize=8;curved=1;exitX=0.5;exitY=0;exitDx=0;exitDy=0;entryX=0;entryY=0.5;entryDx=0;entryDy=0;" parent="1" source="MoQPxjxc0kEaCH0tuq0D-7" target="gzQTVmxqFmnyjNceLkpb-34" edge="1">
          <mxGeometry relative="1" as="geometry">
            <mxPoint x="-140" y="230" as="sourcePoint" />
            <mxPoint x="30" y="210" as="targetPoint" />
          </mxGeometry>
        </mxCell>
        <mxCell id="gzQTVmxqFmnyjNceLkpb-36" value="" style="endArrow=none;html=1;rounded=0;fontSize=12;startSize=8;endSize=8;curved=1;exitX=0.5;exitY=0;exitDx=0;exitDy=0;entryX=0;entryY=0.5;entryDx=0;entryDy=0;" parent="1" source="MoQPxjxc0kEaCH0tuq0D-7" target="gzQTVmxqFmnyjNceLkpb-33" edge="1">
          <mxGeometry relative="1" as="geometry">
            <mxPoint x="-142" y="280" as="sourcePoint" />
            <mxPoint x="-70" y="220" as="targetPoint" />
          </mxGeometry>
        </mxCell>
        <mxCell id="gzQTVmxqFmnyjNceLkpb-37" value="" style="endArrow=none;html=1;rounded=0;fontSize=12;startSize=8;endSize=8;curved=1;exitX=0.5;exitY=0;exitDx=0;exitDy=0;entryX=1;entryY=0.5;entryDx=0;entryDy=0;" parent="1" source="MoQPxjxc0kEaCH0tuq0D-7" target="gzQTVmxqFmnyjNceLkpb-32" edge="1">
          <mxGeometry relative="1" as="geometry">
            <mxPoint x="-132" y="290" as="sourcePoint" />
            <mxPoint x="-60" y="230" as="targetPoint" />
          </mxGeometry>
        </mxCell>
        <mxCell id="gzQTVmxqFmnyjNceLkpb-38" value="" style="endArrow=none;html=1;rounded=0;fontSize=12;startSize=8;endSize=8;curved=1;exitX=0.5;exitY=0;exitDx=0;exitDy=0;entryX=1;entryY=0.5;entryDx=0;entryDy=0;" parent="1" source="MoQPxjxc0kEaCH0tuq0D-7" target="gzQTVmxqFmnyjNceLkpb-31" edge="1">
          <mxGeometry relative="1" as="geometry">
            <mxPoint x="-122" y="300" as="sourcePoint" />
            <mxPoint x="-50" y="240" as="targetPoint" />
          </mxGeometry>
        </mxCell>
        <mxCell id="gzQTVmxqFmnyjNceLkpb-39" value="&lt;u&gt;IDEmployee&lt;/u&gt;" style="ellipse;whiteSpace=wrap;html=1;align=center;fontSize=16;" parent="1" vertex="1">
          <mxGeometry x="-330" y="955" width="117.5" height="40" as="geometry" />
        </mxCell>
        <mxCell id="gzQTVmxqFmnyjNceLkpb-40" value="Username" style="ellipse;whiteSpace=wrap;html=1;align=center;fontSize=16;" parent="1" vertex="1">
          <mxGeometry x="-322.5" y="905" width="110" height="40" as="geometry" />
        </mxCell>
        <mxCell id="gzQTVmxqFmnyjNceLkpb-41" value="Email" style="ellipse;whiteSpace=wrap;html=1;align=center;fontSize=16;" parent="1" vertex="1">
          <mxGeometry x="-130" y="880" width="100" height="40" as="geometry" />
        </mxCell>
        <mxCell id="gzQTVmxqFmnyjNceLkpb-42" value="Password" style="ellipse;whiteSpace=wrap;html=1;align=center;fontSize=16;" parent="1" vertex="1">
          <mxGeometry x="-130" y="925" width="110" height="50" as="geometry" />
        </mxCell>
        <mxCell id="gzQTVmxqFmnyjNceLkpb-43" value="" style="endArrow=none;html=1;rounded=0;fontSize=12;startSize=8;endSize=8;curved=1;entryX=0;entryY=0.5;entryDx=0;entryDy=0;exitX=0.5;exitY=0;exitDx=0;exitDy=0;" parent="1" source="MoQPxjxc0kEaCH0tuq0D-22" target="gzQTVmxqFmnyjNceLkpb-42" edge="1">
          <mxGeometry relative="1" as="geometry">
            <mxPoint x="-380" y="940" as="sourcePoint" />
            <mxPoint x="-220" y="940" as="targetPoint" />
          </mxGeometry>
        </mxCell>
        <mxCell id="gzQTVmxqFmnyjNceLkpb-44" value="" style="endArrow=none;html=1;rounded=0;fontSize=12;startSize=8;endSize=8;curved=1;entryX=0;entryY=0.5;entryDx=0;entryDy=0;exitX=0.5;exitY=0;exitDx=0;exitDy=0;fontStyle=1" parent="1" source="MoQPxjxc0kEaCH0tuq0D-22" target="gzQTVmxqFmnyjNceLkpb-41" edge="1">
          <mxGeometry relative="1" as="geometry">
            <mxPoint x="-380" y="940" as="sourcePoint" />
            <mxPoint x="-220" y="940" as="targetPoint" />
          </mxGeometry>
        </mxCell>
        <mxCell id="gzQTVmxqFmnyjNceLkpb-49" value="" style="endArrow=none;html=1;rounded=0;fontSize=12;startSize=8;endSize=8;curved=1;entryX=1;entryY=0.5;entryDx=0;entryDy=0;fontStyle=1;exitX=0.5;exitY=0;exitDx=0;exitDy=0;" parent="1" source="MoQPxjxc0kEaCH0tuq0D-22" target="gzQTVmxqFmnyjNceLkpb-40" edge="1">
          <mxGeometry relative="1" as="geometry">
            <mxPoint x="-130" y="990" as="sourcePoint" />
            <mxPoint x="-122" y="930" as="targetPoint" />
          </mxGeometry>
        </mxCell>
        <mxCell id="gzQTVmxqFmnyjNceLkpb-50" value="" style="endArrow=none;html=1;rounded=0;fontSize=12;startSize=8;endSize=8;curved=1;entryX=1;entryY=0.5;entryDx=0;entryDy=0;exitX=0.5;exitY=0;exitDx=0;exitDy=0;" parent="1" source="MoQPxjxc0kEaCH0tuq0D-22" target="gzQTVmxqFmnyjNceLkpb-39" edge="1">
          <mxGeometry relative="1" as="geometry">
            <mxPoint x="-145" y="1040" as="sourcePoint" />
            <mxPoint x="-112" y="940" as="targetPoint" />
          </mxGeometry>
        </mxCell>
        <mxCell id="gzQTVmxqFmnyjNceLkpb-51" value="Revenue statistics&amp;nbsp;" style="whiteSpace=wrap;html=1;align=center;fontSize=16;" parent="1" vertex="1">
          <mxGeometry x="525" y="35" width="145" height="50" as="geometry" />
        </mxCell>
        <mxCell id="gzQTVmxqFmnyjNceLkpb-52" value="View" style="shape=rhombus;perimeter=rhombusPerimeter;whiteSpace=wrap;html=1;align=center;fontSize=16;" parent="1" vertex="1">
          <mxGeometry x="150" y="30" width="120" height="60" as="geometry" />
        </mxCell>
        <mxCell id="gzQTVmxqFmnyjNceLkpb-53" value="" style="endArrow=none;html=1;rounded=0;fontSize=12;startSize=8;endSize=8;curved=1;exitX=1;exitY=0.5;exitDx=0;exitDy=0;entryX=0;entryY=0.5;entryDx=0;entryDy=0;" parent="1" source="gzQTVmxqFmnyjNceLkpb-52" target="gzQTVmxqFmnyjNceLkpb-51" edge="1">
          <mxGeometry relative="1" as="geometry">
            <mxPoint x="270" y="-20.910000000000025" as="sourcePoint" />
            <mxPoint x="485" y="-20.910000000000025" as="targetPoint" />
          </mxGeometry>
        </mxCell>
        <object label="M" id="gzQTVmxqFmnyjNceLkpb-54">
          <mxCell style="resizable=0;html=1;whiteSpace=wrap;align=right;verticalAlign=bottom;fontSize=16;" parent="gzQTVmxqFmnyjNceLkpb-53" connectable="0" vertex="1">
            <mxGeometry x="1" relative="1" as="geometry">
              <mxPoint x="-115" as="offset" />
            </mxGeometry>
          </mxCell>
        </object>
        <mxCell id="gzQTVmxqFmnyjNceLkpb-55" value="" style="endArrow=none;html=1;rounded=0;fontSize=12;startSize=8;endSize=8;curved=1;exitX=1;exitY=0.5;exitDx=0;exitDy=0;entryX=0;entryY=0.5;entryDx=0;entryDy=0;" parent="1" source="MoQPxjxc0kEaCH0tuq0D-7" target="gzQTVmxqFmnyjNceLkpb-52" edge="1">
          <mxGeometry relative="1" as="geometry">
            <mxPoint x="280" y="-5" as="sourcePoint" />
            <mxPoint x="530" y="-5" as="targetPoint" />
          </mxGeometry>
        </mxCell>
        <mxCell id="gzQTVmxqFmnyjNceLkpb-56" value="N" style="resizable=0;html=1;whiteSpace=wrap;align=right;verticalAlign=bottom;fontSize=16;" parent="gzQTVmxqFmnyjNceLkpb-55" connectable="0" vertex="1">
          <mxGeometry x="1" relative="1" as="geometry">
            <mxPoint x="-89" y="130" as="offset" />
          </mxGeometry>
        </mxCell>
        <mxCell id="gzQTVmxqFmnyjNceLkpb-60" value="" style="endArrow=none;html=1;rounded=0;fontSize=12;startSize=8;endSize=8;curved=1;entryX=0;entryY=0.5;entryDx=0;entryDy=0;exitX=1;exitY=0.5;exitDx=0;exitDy=0;" parent="1" source="gzQTVmxqFmnyjNceLkpb-51" target="gzQTVmxqFmnyjNceLkpb-66" edge="1">
          <mxGeometry relative="1" as="geometry">
            <mxPoint x="440" y="-60" as="sourcePoint" />
            <mxPoint x="720" y="-50" as="targetPoint" />
          </mxGeometry>
        </mxCell>
        <mxCell id="gzQTVmxqFmnyjNceLkpb-61" value="" style="endArrow=none;html=1;rounded=0;fontSize=12;startSize=8;endSize=8;curved=1;entryX=0;entryY=0.5;entryDx=0;entryDy=0;exitX=1;exitY=0.5;exitDx=0;exitDy=0;" parent="1" source="gzQTVmxqFmnyjNceLkpb-51" target="gzQTVmxqFmnyjNceLkpb-67" edge="1">
          <mxGeometry relative="1" as="geometry">
            <mxPoint x="750" y="170" as="sourcePoint" />
            <mxPoint x="720" y="27.5" as="targetPoint" />
          </mxGeometry>
        </mxCell>
        <mxCell id="gzQTVmxqFmnyjNceLkpb-62" value="book" style="ellipse;whiteSpace=wrap;html=1;align=center;fontSize=16;" parent="1" vertex="1">
          <mxGeometry x="850" y="-220" width="100" height="40" as="geometry" />
        </mxCell>
        <mxCell id="gzQTVmxqFmnyjNceLkpb-63" value="book category" style="ellipse;whiteSpace=wrap;html=1;align=center;fontSize=16;" parent="1" vertex="1">
          <mxGeometry x="850" y="-170" width="130" height="60" as="geometry" />
        </mxCell>
        <mxCell id="gzQTVmxqFmnyjNceLkpb-64" value="customer" style="ellipse;whiteSpace=wrap;html=1;align=center;fontSize=16;" parent="1" vertex="1">
          <mxGeometry x="850" y="-100" width="100" height="40" as="geometry" />
        </mxCell>
        <mxCell id="gzQTVmxqFmnyjNceLkpb-65" value="employee" style="ellipse;whiteSpace=wrap;html=1;align=center;fontSize=16;" parent="1" vertex="1">
          <mxGeometry x="850" y="-50" width="100" height="40" as="geometry" />
        </mxCell>
        <mxCell id="gzQTVmxqFmnyjNceLkpb-66" value="&lt;u&gt;Options&lt;/u&gt;" style="ellipse;whiteSpace=wrap;html=1;align=center;fontSize=16;" parent="1" vertex="1">
          <mxGeometry x="725" y="-70" width="100" height="40" as="geometry" />
        </mxCell>
        <mxCell id="gzQTVmxqFmnyjNceLkpb-67" value="Range of time" style="ellipse;whiteSpace=wrap;html=1;align=center;fontSize=16;" parent="1" vertex="1">
          <mxGeometry x="705" y="10" width="120" height="60" as="geometry" />
        </mxCell>
        <mxCell id="gzQTVmxqFmnyjNceLkpb-68" value="" style="endArrow=none;html=1;rounded=0;fontSize=12;startSize=8;endSize=8;curved=1;entryX=0;entryY=0.5;entryDx=0;entryDy=0;exitX=1;exitY=0.5;exitDx=0;exitDy=0;" parent="1" source="gzQTVmxqFmnyjNceLkpb-66" target="gzQTVmxqFmnyjNceLkpb-65" edge="1">
          <mxGeometry relative="1" as="geometry">
            <mxPoint x="820" y="-10" as="sourcePoint" />
            <mxPoint x="980" y="-10" as="targetPoint" />
          </mxGeometry>
        </mxCell>
        <mxCell id="gzQTVmxqFmnyjNceLkpb-69" value="" style="endArrow=none;html=1;rounded=0;fontSize=12;startSize=8;endSize=8;curved=1;entryX=0;entryY=0.5;entryDx=0;entryDy=0;exitX=1;exitY=0.5;exitDx=0;exitDy=0;" parent="1" source="gzQTVmxqFmnyjNceLkpb-66" target="gzQTVmxqFmnyjNceLkpb-64" edge="1">
          <mxGeometry relative="1" as="geometry">
            <mxPoint x="820" y="-10" as="sourcePoint" />
            <mxPoint x="980" y="-10" as="targetPoint" />
          </mxGeometry>
        </mxCell>
        <mxCell id="gzQTVmxqFmnyjNceLkpb-70" value="" style="endArrow=none;html=1;rounded=0;fontSize=12;startSize=8;endSize=8;curved=1;entryX=0;entryY=0.5;entryDx=0;entryDy=0;exitX=1;exitY=0.5;exitDx=0;exitDy=0;" parent="1" source="gzQTVmxqFmnyjNceLkpb-66" target="gzQTVmxqFmnyjNceLkpb-63" edge="1">
          <mxGeometry relative="1" as="geometry">
            <mxPoint x="830" y="-50" as="sourcePoint" />
            <mxPoint x="980" y="-10" as="targetPoint" />
          </mxGeometry>
        </mxCell>
        <mxCell id="gzQTVmxqFmnyjNceLkpb-71" value="" style="endArrow=none;html=1;rounded=0;fontSize=12;startSize=8;endSize=8;curved=1;entryX=0;entryY=0.5;entryDx=0;entryDy=0;exitX=1;exitY=0.5;exitDx=0;exitDy=0;" parent="1" source="gzQTVmxqFmnyjNceLkpb-66" target="gzQTVmxqFmnyjNceLkpb-62" edge="1">
          <mxGeometry relative="1" as="geometry">
            <mxPoint x="820" y="-10" as="sourcePoint" />
            <mxPoint x="980" y="-10" as="targetPoint" />
          </mxGeometry>
        </mxCell>
        <mxCell id="gzQTVmxqFmnyjNceLkpb-72" value="a week" style="ellipse;whiteSpace=wrap;html=1;align=center;fontSize=16;" parent="1" vertex="1">
          <mxGeometry x="840" y="30" width="100" height="40" as="geometry" />
        </mxCell>
        <mxCell id="gzQTVmxqFmnyjNceLkpb-73" value="a month" style="ellipse;whiteSpace=wrap;html=1;align=center;fontSize=16;" parent="1" vertex="1">
          <mxGeometry x="840" y="85" width="100" height="40" as="geometry" />
        </mxCell>
        <mxCell id="gzQTVmxqFmnyjNceLkpb-74" value="from date to date" style="ellipse;whiteSpace=wrap;html=1;align=center;fontSize=16;" parent="1" vertex="1">
          <mxGeometry x="840" y="140" width="140" height="50" as="geometry" />
        </mxCell>
        <mxCell id="gzQTVmxqFmnyjNceLkpb-75" value="" style="endArrow=none;html=1;rounded=0;fontSize=12;startSize=8;endSize=8;curved=1;entryX=0;entryY=0.5;entryDx=0;entryDy=0;exitX=1;exitY=0.5;exitDx=0;exitDy=0;" parent="1" source="gzQTVmxqFmnyjNceLkpb-67" target="gzQTVmxqFmnyjNceLkpb-72" edge="1">
          <mxGeometry relative="1" as="geometry">
            <mxPoint x="800" y="10" as="sourcePoint" />
            <mxPoint x="960" y="10" as="targetPoint" />
          </mxGeometry>
        </mxCell>
        <mxCell id="gzQTVmxqFmnyjNceLkpb-76" value="" style="endArrow=none;html=1;rounded=0;fontSize=12;startSize=8;endSize=8;curved=1;entryX=0;entryY=0.5;entryDx=0;entryDy=0;exitX=1;exitY=0.5;exitDx=0;exitDy=0;" parent="1" source="gzQTVmxqFmnyjNceLkpb-67" target="gzQTVmxqFmnyjNceLkpb-73" edge="1">
          <mxGeometry relative="1" as="geometry">
            <mxPoint x="800" y="10" as="sourcePoint" />
            <mxPoint x="960" y="10" as="targetPoint" />
          </mxGeometry>
        </mxCell>
        <mxCell id="gzQTVmxqFmnyjNceLkpb-77" value="" style="endArrow=none;html=1;rounded=0;fontSize=12;startSize=8;endSize=8;curved=1;entryX=0;entryY=0.5;entryDx=0;entryDy=0;exitX=1;exitY=0.5;exitDx=0;exitDy=0;" parent="1" source="gzQTVmxqFmnyjNceLkpb-67" target="gzQTVmxqFmnyjNceLkpb-74" edge="1">
          <mxGeometry relative="1" as="geometry">
            <mxPoint x="800" y="10" as="sourcePoint" />
            <mxPoint x="960" y="10" as="targetPoint" />
          </mxGeometry>
        </mxCell>
        <mxCell id="gzQTVmxqFmnyjNceLkpb-79" value="&lt;u&gt;IDCustomer&lt;/u&gt;" style="ellipse;whiteSpace=wrap;html=1;align=center;fontSize=16;" parent="1" vertex="1">
          <mxGeometry x="715" y="820" width="120" height="40" as="geometry" />
        </mxCell>
        <mxCell id="gzQTVmxqFmnyjNceLkpb-80" value="Fullname" style="ellipse;whiteSpace=wrap;html=1;align=center;fontSize=16;" parent="1" vertex="1">
          <mxGeometry x="715" y="870" width="100" height="40" as="geometry" />
        </mxCell>
        <mxCell id="gzQTVmxqFmnyjNceLkpb-83" value="" style="endArrow=none;html=1;rounded=0;fontSize=12;startSize=8;endSize=8;curved=1;entryX=0;entryY=0.5;entryDx=0;entryDy=0;exitX=1;exitY=0.5;exitDx=0;exitDy=0;" parent="1" source="gzQTVmxqFmnyjNceLkpb-125" target="gzQTVmxqFmnyjNceLkpb-80" edge="1">
          <mxGeometry relative="1" as="geometry">
            <mxPoint x="670" y="805" as="sourcePoint" />
            <mxPoint x="730" y="810" as="targetPoint" />
          </mxGeometry>
        </mxCell>
        <mxCell id="gzQTVmxqFmnyjNceLkpb-84" value="" style="endArrow=none;html=1;rounded=0;fontSize=12;startSize=8;endSize=8;curved=1;entryX=0;entryY=0.5;entryDx=0;entryDy=0;exitX=1;exitY=0.5;exitDx=0;exitDy=0;" parent="1" source="gzQTVmxqFmnyjNceLkpb-125" target="gzQTVmxqFmnyjNceLkpb-79" edge="1">
          <mxGeometry relative="1" as="geometry">
            <mxPoint x="670" y="805" as="sourcePoint" />
            <mxPoint x="725" y="870" as="targetPoint" />
          </mxGeometry>
        </mxCell>
        <mxCell id="gzQTVmxqFmnyjNceLkpb-85" value="Purchase history" style="whiteSpace=wrap;html=1;align=center;fontSize=16;" parent="1" vertex="1">
          <mxGeometry x="-240" y="775" width="140" height="50" as="geometry" />
        </mxCell>
        <mxCell id="gzQTVmxqFmnyjNceLkpb-86" value="Has" style="shape=rhombus;perimeter=rhombusPerimeter;whiteSpace=wrap;html=1;align=center;fontSize=16;" parent="1" vertex="1">
          <mxGeometry x="150" y="770" width="120" height="60" as="geometry" />
        </mxCell>
        <mxCell id="gzQTVmxqFmnyjNceLkpb-90" value="" style="endArrow=none;html=1;rounded=0;fontSize=12;startSize=8;endSize=8;curved=1;entryX=0;entryY=0.5;entryDx=0;entryDy=0;exitX=1;exitY=0.5;exitDx=0;exitDy=0;" parent="1" source="gzQTVmxqFmnyjNceLkpb-85" target="gzQTVmxqFmnyjNceLkpb-86" edge="1">
          <mxGeometry relative="1" as="geometry">
            <mxPoint x="140" y="830" as="sourcePoint" />
            <mxPoint x="370" y="820" as="targetPoint" />
          </mxGeometry>
        </mxCell>
        <mxCell id="gzQTVmxqFmnyjNceLkpb-91" value="1" style="resizable=0;html=1;whiteSpace=wrap;align=right;verticalAlign=bottom;fontSize=16;" parent="gzQTVmxqFmnyjNceLkpb-90" connectable="0" vertex="1">
          <mxGeometry x="1" relative="1" as="geometry">
            <mxPoint x="-119" y="-5" as="offset" />
          </mxGeometry>
        </mxCell>
        <mxCell id="gzQTVmxqFmnyjNceLkpb-92" value="" style="endArrow=none;html=1;rounded=0;fontSize=12;startSize=8;endSize=8;curved=1;exitX=1;exitY=0.5;exitDx=0;exitDy=0;" parent="1" source="gzQTVmxqFmnyjNceLkpb-86" target="gzQTVmxqFmnyjNceLkpb-125" edge="1">
          <mxGeometry relative="1" as="geometry">
            <mxPoint x="180" y="850" as="sourcePoint" />
            <mxPoint x="540" y="805" as="targetPoint" />
          </mxGeometry>
        </mxCell>
        <mxCell id="gzQTVmxqFmnyjNceLkpb-93" value="1" style="resizable=0;html=1;whiteSpace=wrap;align=right;verticalAlign=bottom;fontSize=16;" parent="gzQTVmxqFmnyjNceLkpb-92" connectable="0" vertex="1">
          <mxGeometry x="1" relative="1" as="geometry">
            <mxPoint x="-100" as="offset" />
          </mxGeometry>
        </mxCell>
        <mxCell id="gzQTVmxqFmnyjNceLkpb-96" value="IDBook" style="ellipse;whiteSpace=wrap;html=1;align=center;fontStyle=4;fontSize=16;" parent="1" vertex="1">
          <mxGeometry x="-377.5" y="520" width="100" height="40" as="geometry" />
        </mxCell>
        <mxCell id="gzQTVmxqFmnyjNceLkpb-97" value="Number of books" style="ellipse;whiteSpace=wrap;html=1;align=center;fontSize=16;" parent="1" vertex="1">
          <mxGeometry x="-397.5" y="570" width="120" height="60" as="geometry" />
        </mxCell>
        <mxCell id="gzQTVmxqFmnyjNceLkpb-98" value="Total price" style="ellipse;whiteSpace=wrap;html=1;align=center;fontSize=16;" parent="1" vertex="1">
          <mxGeometry x="-377.5" y="740" width="100" height="40" as="geometry" />
        </mxCell>
        <mxCell id="gzQTVmxqFmnyjNceLkpb-99" value="Time" style="ellipse;whiteSpace=wrap;html=1;align=center;fontSize=16;" parent="1" vertex="1">
          <mxGeometry x="-380" y="640" width="100" height="40" as="geometry" />
        </mxCell>
        <mxCell id="gzQTVmxqFmnyjNceLkpb-100" value="Date" style="ellipse;whiteSpace=wrap;html=1;align=center;fontSize=16;" parent="1" vertex="1">
          <mxGeometry x="-377.5" y="690" width="100" height="40" as="geometry" />
        </mxCell>
        <mxCell id="gzQTVmxqFmnyjNceLkpb-101" value="" style="endArrow=none;html=1;rounded=0;fontSize=12;startSize=8;endSize=8;curved=1;exitX=1;exitY=0.5;exitDx=0;exitDy=0;entryX=0;entryY=0.5;entryDx=0;entryDy=0;" parent="1" source="gzQTVmxqFmnyjNceLkpb-96" target="gzQTVmxqFmnyjNceLkpb-85" edge="1">
          <mxGeometry relative="1" as="geometry">
            <mxPoint y="760" as="sourcePoint" />
            <mxPoint x="160" y="760" as="targetPoint" />
          </mxGeometry>
        </mxCell>
        <mxCell id="gzQTVmxqFmnyjNceLkpb-102" value="" style="endArrow=none;html=1;rounded=0;fontSize=12;startSize=8;endSize=8;curved=1;exitX=1;exitY=0.5;exitDx=0;exitDy=0;entryX=0;entryY=0.5;entryDx=0;entryDy=0;" parent="1" source="gzQTVmxqFmnyjNceLkpb-97" target="gzQTVmxqFmnyjNceLkpb-85" edge="1">
          <mxGeometry relative="1" as="geometry">
            <mxPoint x="-70" y="640" as="sourcePoint" />
            <mxPoint x="-50" y="840" as="targetPoint" />
          </mxGeometry>
        </mxCell>
        <mxCell id="gzQTVmxqFmnyjNceLkpb-103" value="" style="endArrow=none;html=1;rounded=0;fontSize=12;startSize=8;endSize=8;curved=1;exitX=1;exitY=0.5;exitDx=0;exitDy=0;entryX=0;entryY=0.5;entryDx=0;entryDy=0;" parent="1" source="gzQTVmxqFmnyjNceLkpb-99" target="gzQTVmxqFmnyjNceLkpb-85" edge="1">
          <mxGeometry relative="1" as="geometry">
            <mxPoint x="-60" y="650" as="sourcePoint" />
            <mxPoint x="-50" y="860" as="targetPoint" />
          </mxGeometry>
        </mxCell>
        <mxCell id="gzQTVmxqFmnyjNceLkpb-104" value="" style="endArrow=none;html=1;rounded=0;fontSize=12;startSize=8;endSize=8;curved=1;exitX=1;exitY=0.5;exitDx=0;exitDy=0;entryX=0;entryY=0.5;entryDx=0;entryDy=0;" parent="1" source="gzQTVmxqFmnyjNceLkpb-100" target="gzQTVmxqFmnyjNceLkpb-85" edge="1">
          <mxGeometry relative="1" as="geometry">
            <mxPoint x="-50" y="660" as="sourcePoint" />
            <mxPoint x="-10" y="835" as="targetPoint" />
          </mxGeometry>
        </mxCell>
        <mxCell id="gzQTVmxqFmnyjNceLkpb-105" value="" style="endArrow=none;html=1;rounded=0;fontSize=12;startSize=8;endSize=8;curved=1;exitX=1;exitY=0.5;exitDx=0;exitDy=0;entryX=0;entryY=0.5;entryDx=0;entryDy=0;" parent="1" source="gzQTVmxqFmnyjNceLkpb-98" target="gzQTVmxqFmnyjNceLkpb-85" edge="1">
          <mxGeometry relative="1" as="geometry">
            <mxPoint x="-40" y="670" as="sourcePoint" />
            <mxPoint y="845" as="targetPoint" />
          </mxGeometry>
        </mxCell>
        <mxCell id="gzQTVmxqFmnyjNceLkpb-107" value="Numerical order" style="ellipse;whiteSpace=wrap;html=1;align=center;fontSize=16;" parent="1" vertex="1">
          <mxGeometry x="712.5" y="250" width="125" height="50" as="geometry" />
        </mxCell>
        <mxCell id="gzQTVmxqFmnyjNceLkpb-108" value="IDCustomer" style="ellipse;whiteSpace=wrap;html=1;align=center;fontSize=16;" parent="1" vertex="1">
          <mxGeometry x="710" y="310" width="125" height="50" as="geometry" />
        </mxCell>
        <mxCell id="gzQTVmxqFmnyjNceLkpb-109" value="Fullname" style="ellipse;whiteSpace=wrap;html=1;align=center;fontSize=16;" parent="1" vertex="1">
          <mxGeometry x="710" y="370" width="105" height="40" as="geometry" />
        </mxCell>
        <mxCell id="gzQTVmxqFmnyjNceLkpb-110" value="" style="endArrow=none;html=1;rounded=0;fontSize=12;startSize=8;endSize=8;curved=1;entryX=0;entryY=0.5;entryDx=0;entryDy=0;exitX=1;exitY=0.5;exitDx=0;exitDy=0;" parent="1" source="MoQPxjxc0kEaCH0tuq0D-9" target="gzQTVmxqFmnyjNceLkpb-109" edge="1">
          <mxGeometry relative="1" as="geometry">
            <mxPoint x="520" y="380" as="sourcePoint" />
            <mxPoint x="680" y="380" as="targetPoint" />
          </mxGeometry>
        </mxCell>
        <mxCell id="gzQTVmxqFmnyjNceLkpb-111" value="" style="endArrow=none;html=1;rounded=0;fontSize=12;startSize=8;endSize=8;curved=1;entryX=0;entryY=0.5;entryDx=0;entryDy=0;exitX=1;exitY=0.5;exitDx=0;exitDy=0;" parent="1" source="MoQPxjxc0kEaCH0tuq0D-9" target="gzQTVmxqFmnyjNceLkpb-108" edge="1">
          <mxGeometry relative="1" as="geometry">
            <mxPoint x="520" y="380" as="sourcePoint" />
            <mxPoint x="680" y="380" as="targetPoint" />
          </mxGeometry>
        </mxCell>
        <mxCell id="gzQTVmxqFmnyjNceLkpb-112" value="" style="endArrow=none;html=1;rounded=0;fontSize=12;startSize=8;endSize=8;curved=1;exitX=1;exitY=0.5;exitDx=0;exitDy=0;entryX=0;entryY=0.5;entryDx=0;entryDy=0;" parent="1" source="MoQPxjxc0kEaCH0tuq0D-9" target="gzQTVmxqFmnyjNceLkpb-107" edge="1">
          <mxGeometry relative="1" as="geometry">
            <mxPoint x="520" y="380" as="sourcePoint" />
            <mxPoint x="680" y="380" as="targetPoint" />
          </mxGeometry>
        </mxCell>
        <mxCell id="gzQTVmxqFmnyjNceLkpb-113" value="Account creation date" style="ellipse;whiteSpace=wrap;html=1;align=center;fontSize=16;" parent="1" vertex="1">
          <mxGeometry x="710" y="420" width="150" height="60" as="geometry" />
        </mxCell>
        <mxCell id="gzQTVmxqFmnyjNceLkpb-114" value="" style="endArrow=none;html=1;rounded=0;fontSize=12;startSize=8;endSize=8;curved=1;entryX=0;entryY=0.5;entryDx=0;entryDy=0;exitX=1;exitY=0.5;exitDx=0;exitDy=0;" parent="1" source="MoQPxjxc0kEaCH0tuq0D-9" target="gzQTVmxqFmnyjNceLkpb-113" edge="1">
          <mxGeometry relative="1" as="geometry">
            <mxPoint x="430" y="440" as="sourcePoint" />
            <mxPoint x="590" y="440" as="targetPoint" />
          </mxGeometry>
        </mxCell>
        <mxCell id="gzQTVmxqFmnyjNceLkpb-115" value="Belongs to the category" style="ellipse;whiteSpace=wrap;html=1;align=center;fontSize=16;" parent="1" vertex="1">
          <mxGeometry x="-422.5" y="790" width="145" height="50" as="geometry" />
        </mxCell>
        <mxCell id="gzQTVmxqFmnyjNceLkpb-117" value="" style="endArrow=none;html=1;rounded=0;fontSize=12;startSize=8;endSize=8;curved=1;exitX=1;exitY=0.5;exitDx=0;exitDy=0;entryX=0;entryY=0.5;entryDx=0;entryDy=0;" parent="1" source="gzQTVmxqFmnyjNceLkpb-115" target="gzQTVmxqFmnyjNceLkpb-85" edge="1">
          <mxGeometry relative="1" as="geometry">
            <mxPoint x="-230" y="720" as="sourcePoint" />
            <mxPoint x="-70" y="720" as="targetPoint" />
          </mxGeometry>
        </mxCell>
        <mxCell id="gzQTVmxqFmnyjNceLkpb-118" value="" style="endArrow=none;html=1;rounded=0;fontSize=12;startSize=8;endSize=8;curved=1;exitX=1;exitY=0.5;exitDx=0;exitDy=0;entryX=0;entryY=0.5;entryDx=0;entryDy=0;" parent="1" source="gzQTVmxqFmnyjNceLkpb-119" target="gzQTVmxqFmnyjNceLkpb-85" edge="1">
          <mxGeometry relative="1" as="geometry">
            <mxPoint x="-279.9999999999977" y="870" as="sourcePoint" />
            <mxPoint x="-70" y="720" as="targetPoint" />
          </mxGeometry>
        </mxCell>
        <mxCell id="gzQTVmxqFmnyjNceLkpb-119" value="IDSalesEmployee" style="ellipse;whiteSpace=wrap;html=1;align=center;fontSize=16;" parent="1" vertex="1">
          <mxGeometry x="-420" y="850" width="142.5" height="50" as="geometry" />
        </mxCell>
        <mxCell id="gzQTVmxqFmnyjNceLkpb-120" value="&amp;nbsp;List of book categories" style="whiteSpace=wrap;html=1;align=center;fontSize=16;" parent="1" vertex="1">
          <mxGeometry x="540" y="1010" width="125" height="70" as="geometry" />
        </mxCell>
        <mxCell id="gzQTVmxqFmnyjNceLkpb-121" value="Book" style="whiteSpace=wrap;html=1;align=center;fontSize=16;" parent="1" vertex="1">
          <mxGeometry x="1570" y="1515" width="100" height="50" as="geometry" />
        </mxCell>
        <mxCell id="gzQTVmxqFmnyjNceLkpb-122" value="List of book publishers" style="whiteSpace=wrap;html=1;align=center;fontSize=16;" parent="1" vertex="1">
          <mxGeometry x="545" y="1345" width="125" height="70" as="geometry" />
        </mxCell>
        <mxCell id="gzQTVmxqFmnyjNceLkpb-123" value="List of book authors" style="whiteSpace=wrap;html=1;align=center;fontSize=16;" parent="1" vertex="1">
          <mxGeometry x="545" y="1695" width="125" height="70" as="geometry" />
        </mxCell>
        <mxCell id="gzQTVmxqFmnyjNceLkpb-124" value="List of books" style="whiteSpace=wrap;html=1;align=center;fontSize=16;" parent="1" vertex="1">
          <mxGeometry x="545" y="2055" width="125" height="50" as="geometry" />
        </mxCell>
        <mxCell id="gzQTVmxqFmnyjNceLkpb-125" value="Customer (User)" style="shape=ext;margin=3;double=1;whiteSpace=wrap;html=1;align=center;fontSize=16;" parent="1" vertex="1">
          <mxGeometry x="540" y="770" width="130" height="60" as="geometry" />
        </mxCell>
        <mxCell id="gzQTVmxqFmnyjNceLkpb-126" value="Manage" style="shape=rhombus;perimeter=rhombusPerimeter;whiteSpace=wrap;html=1;align=center;fontSize=16;" parent="1" vertex="1">
          <mxGeometry x="150" y="1015" width="120" height="60" as="geometry" />
        </mxCell>
        <mxCell id="gzQTVmxqFmnyjNceLkpb-127" value="" style="endArrow=none;html=1;rounded=0;fontSize=12;startSize=8;endSize=8;curved=1;exitX=1;exitY=0.5;exitDx=0;exitDy=0;entryX=0;entryY=0.5;entryDx=0;entryDy=0;" parent="1" source="gzQTVmxqFmnyjNceLkpb-126" target="gzQTVmxqFmnyjNceLkpb-120" edge="1">
          <mxGeometry relative="1" as="geometry">
            <mxPoint x="290" y="880" as="sourcePoint" />
            <mxPoint x="450" y="880" as="targetPoint" />
          </mxGeometry>
        </mxCell>
        <mxCell id="gzQTVmxqFmnyjNceLkpb-128" value="1" style="resizable=0;html=1;whiteSpace=wrap;align=right;verticalAlign=bottom;fontSize=16;" parent="gzQTVmxqFmnyjNceLkpb-127" connectable="0" vertex="1">
          <mxGeometry x="1" relative="1" as="geometry">
            <mxPoint x="-130" as="offset" />
          </mxGeometry>
        </mxCell>
        <mxCell id="gzQTVmxqFmnyjNceLkpb-129" value="" style="endArrow=none;html=1;rounded=0;fontSize=12;startSize=8;endSize=8;curved=1;exitX=1;exitY=0.5;exitDx=0;exitDy=0;entryX=0;entryY=0.5;entryDx=0;entryDy=0;" parent="1" source="MoQPxjxc0kEaCH0tuq0D-22" target="gzQTVmxqFmnyjNceLkpb-126" edge="1">
          <mxGeometry relative="1" as="geometry">
            <mxPoint x="90" y="950" as="sourcePoint" />
            <mxPoint x="250" y="950" as="targetPoint" />
          </mxGeometry>
        </mxCell>
        <mxCell id="gzQTVmxqFmnyjNceLkpb-130" value="N" style="resizable=0;html=1;whiteSpace=wrap;align=right;verticalAlign=bottom;fontSize=16;" parent="gzQTVmxqFmnyjNceLkpb-129" connectable="0" vertex="1">
          <mxGeometry x="1" relative="1" as="geometry">
            <mxPoint x="-110" as="offset" />
          </mxGeometry>
        </mxCell>
        <mxCell id="gzQTVmxqFmnyjNceLkpb-131" value="view" style="ellipse;whiteSpace=wrap;html=1;align=center;fontSize=16;" parent="1" vertex="1">
          <mxGeometry x="80" y="930" width="80" height="40" as="geometry" />
        </mxCell>
        <mxCell id="gzQTVmxqFmnyjNceLkpb-132" value="Search for a category" style="ellipse;whiteSpace=wrap;html=1;align=center;fontSize=16;" parent="1" vertex="1">
          <mxGeometry x="30" y="1070" width="130" height="60" as="geometry" />
        </mxCell>
        <mxCell id="gzQTVmxqFmnyjNceLkpb-133" value="Add a category" style="ellipse;whiteSpace=wrap;html=1;align=center;fontSize=16;" parent="1" vertex="1">
          <mxGeometry x="30" y="980" width="130" height="50" as="geometry" />
        </mxCell>
        <mxCell id="gzQTVmxqFmnyjNceLkpb-134" value="Sort list" style="ellipse;whiteSpace=wrap;html=1;align=center;fontSize=16;" parent="1" vertex="1">
          <mxGeometry x="60" y="1140" width="100" height="50" as="geometry" />
        </mxCell>
        <mxCell id="gzQTVmxqFmnyjNceLkpb-135" value="Disable/hide a category" style="ellipse;whiteSpace=wrap;html=1;align=center;fontSize=16;" parent="1" vertex="1">
          <mxGeometry x="250" y="1065" width="130" height="70" as="geometry" />
        </mxCell>
        <mxCell id="gzQTVmxqFmnyjNceLkpb-136" value="Update information" style="ellipse;whiteSpace=wrap;html=1;align=center;fontSize=16;" parent="1" vertex="1">
          <mxGeometry x="250" y="950" width="120" height="60" as="geometry" />
        </mxCell>
        <mxCell id="gzQTVmxqFmnyjNceLkpb-137" value="Enable/show a category" style="ellipse;whiteSpace=wrap;html=1;align=center;fontSize=16;" parent="1" vertex="1">
          <mxGeometry x="250" y="1140" width="130" height="70" as="geometry" />
        </mxCell>
        <mxCell id="gzQTVmxqFmnyjNceLkpb-138" value="" style="endArrow=none;html=1;rounded=0;fontSize=12;startSize=8;endSize=8;curved=1;exitX=1;exitY=0.5;exitDx=0;exitDy=0;entryX=0.5;entryY=0;entryDx=0;entryDy=0;" parent="1" source="gzQTVmxqFmnyjNceLkpb-131" target="gzQTVmxqFmnyjNceLkpb-126" edge="1">
          <mxGeometry relative="1" as="geometry">
            <mxPoint x="150" y="1110" as="sourcePoint" />
            <mxPoint x="310" y="1110" as="targetPoint" />
          </mxGeometry>
        </mxCell>
        <mxCell id="gzQTVmxqFmnyjNceLkpb-139" value="" style="endArrow=none;html=1;rounded=0;fontSize=12;startSize=8;endSize=8;curved=1;exitX=1;exitY=0.5;exitDx=0;exitDy=0;entryX=0.5;entryY=0;entryDx=0;entryDy=0;" parent="1" source="gzQTVmxqFmnyjNceLkpb-133" target="gzQTVmxqFmnyjNceLkpb-126" edge="1">
          <mxGeometry relative="1" as="geometry">
            <mxPoint x="170" y="945" as="sourcePoint" />
            <mxPoint x="220" y="990" as="targetPoint" />
          </mxGeometry>
        </mxCell>
        <mxCell id="gzQTVmxqFmnyjNceLkpb-140" value="" style="endArrow=none;html=1;rounded=0;fontSize=12;startSize=8;endSize=8;curved=1;exitX=0;exitY=0.5;exitDx=0;exitDy=0;entryX=0.5;entryY=0;entryDx=0;entryDy=0;" parent="1" source="gzQTVmxqFmnyjNceLkpb-136" target="gzQTVmxqFmnyjNceLkpb-126" edge="1">
          <mxGeometry relative="1" as="geometry">
            <mxPoint x="180" y="955" as="sourcePoint" />
            <mxPoint x="230" y="1035" as="targetPoint" />
          </mxGeometry>
        </mxCell>
        <mxCell id="gzQTVmxqFmnyjNceLkpb-141" value="" style="endArrow=none;html=1;rounded=0;fontSize=12;startSize=8;endSize=8;curved=1;exitX=1;exitY=0.5;exitDx=0;exitDy=0;entryX=0.5;entryY=1;entryDx=0;entryDy=0;" parent="1" source="gzQTVmxqFmnyjNceLkpb-134" target="gzQTVmxqFmnyjNceLkpb-126" edge="1">
          <mxGeometry relative="1" as="geometry">
            <mxPoint x="190" y="965" as="sourcePoint" />
            <mxPoint x="240" y="1045" as="targetPoint" />
          </mxGeometry>
        </mxCell>
        <mxCell id="gzQTVmxqFmnyjNceLkpb-142" value="" style="endArrow=none;html=1;rounded=0;fontSize=12;startSize=8;endSize=8;curved=1;exitX=1;exitY=0.5;exitDx=0;exitDy=0;entryX=0.5;entryY=1;entryDx=0;entryDy=0;" parent="1" source="gzQTVmxqFmnyjNceLkpb-132" target="gzQTVmxqFmnyjNceLkpb-126" edge="1">
          <mxGeometry relative="1" as="geometry">
            <mxPoint x="200" y="975" as="sourcePoint" />
            <mxPoint x="220" y="1110" as="targetPoint" />
          </mxGeometry>
        </mxCell>
        <mxCell id="gzQTVmxqFmnyjNceLkpb-143" value="" style="endArrow=none;html=1;rounded=0;fontSize=12;startSize=8;endSize=8;curved=1;exitX=0.5;exitY=1;exitDx=0;exitDy=0;entryX=0;entryY=0.5;entryDx=0;entryDy=0;" parent="1" source="gzQTVmxqFmnyjNceLkpb-126" target="gzQTVmxqFmnyjNceLkpb-137" edge="1">
          <mxGeometry relative="1" as="geometry">
            <mxPoint x="210" y="985" as="sourcePoint" />
            <mxPoint x="260" y="1065" as="targetPoint" />
          </mxGeometry>
        </mxCell>
        <mxCell id="gzQTVmxqFmnyjNceLkpb-144" value="" style="endArrow=none;html=1;rounded=0;fontSize=12;startSize=8;endSize=8;curved=1;exitX=0.5;exitY=1;exitDx=0;exitDy=0;entryX=0;entryY=0.5;entryDx=0;entryDy=0;" parent="1" source="gzQTVmxqFmnyjNceLkpb-126" target="gzQTVmxqFmnyjNceLkpb-135" edge="1">
          <mxGeometry relative="1" as="geometry">
            <mxPoint x="220" y="995" as="sourcePoint" />
            <mxPoint x="270" y="1075" as="targetPoint" />
          </mxGeometry>
        </mxCell>
        <mxCell id="gzQTVmxqFmnyjNceLkpb-145" value="Manage" style="shape=rhombus;perimeter=rhombusPerimeter;whiteSpace=wrap;html=1;align=center;fontSize=16;" parent="1" vertex="1">
          <mxGeometry x="155" y="1350" width="120" height="60" as="geometry" />
        </mxCell>
        <mxCell id="gzQTVmxqFmnyjNceLkpb-146" value="" style="endArrow=none;html=1;rounded=0;fontSize=12;startSize=8;endSize=8;curved=1;exitX=1;exitY=0.5;exitDx=0;exitDy=0;entryX=0;entryY=0.5;entryDx=0;entryDy=0;" parent="1" source="gzQTVmxqFmnyjNceLkpb-145" target="gzQTVmxqFmnyjNceLkpb-122" edge="1">
          <mxGeometry relative="1" as="geometry">
            <mxPoint x="295" y="1215" as="sourcePoint" />
            <mxPoint x="545" y="1380" as="targetPoint" />
          </mxGeometry>
        </mxCell>
        <mxCell id="gzQTVmxqFmnyjNceLkpb-147" value="1" style="resizable=0;html=1;whiteSpace=wrap;align=right;verticalAlign=bottom;fontSize=16;" parent="gzQTVmxqFmnyjNceLkpb-146" connectable="0" vertex="1">
          <mxGeometry x="1" relative="1" as="geometry">
            <mxPoint x="-130" as="offset" />
          </mxGeometry>
        </mxCell>
        <mxCell id="gzQTVmxqFmnyjNceLkpb-149" value="view" style="ellipse;whiteSpace=wrap;html=1;align=center;fontSize=16;" parent="1" vertex="1">
          <mxGeometry x="120" y="1230" width="80" height="40" as="geometry" />
        </mxCell>
        <mxCell id="gzQTVmxqFmnyjNceLkpb-150" value="Search for a publisher" style="ellipse;whiteSpace=wrap;html=1;align=center;fontSize=16;" parent="1" vertex="1">
          <mxGeometry x="35" y="1405" width="130" height="60" as="geometry" />
        </mxCell>
        <mxCell id="gzQTVmxqFmnyjNceLkpb-151" value="Add a publisher" style="ellipse;whiteSpace=wrap;html=1;align=center;fontSize=16;" parent="1" vertex="1">
          <mxGeometry x="70" y="1280" width="130" height="60" as="geometry" />
        </mxCell>
        <mxCell id="gzQTVmxqFmnyjNceLkpb-152" value="Sort list" style="ellipse;whiteSpace=wrap;html=1;align=center;fontSize=16;" parent="1" vertex="1">
          <mxGeometry x="65" y="1475" width="100" height="50" as="geometry" />
        </mxCell>
        <mxCell id="gzQTVmxqFmnyjNceLkpb-153" value="Disable/hide a publisher" style="ellipse;whiteSpace=wrap;html=1;align=center;fontSize=16;" parent="1" vertex="1">
          <mxGeometry x="255" y="1400" width="130" height="70" as="geometry" />
        </mxCell>
        <mxCell id="gzQTVmxqFmnyjNceLkpb-154" value="Update information" style="ellipse;whiteSpace=wrap;html=1;align=center;fontSize=16;" parent="1" vertex="1">
          <mxGeometry x="255" y="1285" width="120" height="60" as="geometry" />
        </mxCell>
        <mxCell id="gzQTVmxqFmnyjNceLkpb-155" value="Enable/show a publisher" style="ellipse;whiteSpace=wrap;html=1;align=center;fontSize=16;" parent="1" vertex="1">
          <mxGeometry x="255" y="1475" width="130" height="70" as="geometry" />
        </mxCell>
        <mxCell id="gzQTVmxqFmnyjNceLkpb-156" value="" style="endArrow=none;html=1;rounded=0;fontSize=12;startSize=8;endSize=8;curved=1;exitX=1;exitY=0.5;exitDx=0;exitDy=0;entryX=0.5;entryY=0;entryDx=0;entryDy=0;" parent="1" source="gzQTVmxqFmnyjNceLkpb-149" target="gzQTVmxqFmnyjNceLkpb-145" edge="1">
          <mxGeometry relative="1" as="geometry">
            <mxPoint x="155" y="1445" as="sourcePoint" />
            <mxPoint x="315" y="1445" as="targetPoint" />
          </mxGeometry>
        </mxCell>
        <mxCell id="gzQTVmxqFmnyjNceLkpb-157" value="" style="endArrow=none;html=1;rounded=0;fontSize=12;startSize=8;endSize=8;curved=1;exitX=1;exitY=0.5;exitDx=0;exitDy=0;entryX=0.5;entryY=0;entryDx=0;entryDy=0;" parent="1" source="gzQTVmxqFmnyjNceLkpb-151" target="gzQTVmxqFmnyjNceLkpb-145" edge="1">
          <mxGeometry relative="1" as="geometry">
            <mxPoint x="175" y="1280" as="sourcePoint" />
            <mxPoint x="225" y="1325" as="targetPoint" />
          </mxGeometry>
        </mxCell>
        <mxCell id="gzQTVmxqFmnyjNceLkpb-158" value="" style="endArrow=none;html=1;rounded=0;fontSize=12;startSize=8;endSize=8;curved=1;exitX=0;exitY=0.5;exitDx=0;exitDy=0;entryX=0.5;entryY=0;entryDx=0;entryDy=0;" parent="1" source="gzQTVmxqFmnyjNceLkpb-154" target="gzQTVmxqFmnyjNceLkpb-145" edge="1">
          <mxGeometry relative="1" as="geometry">
            <mxPoint x="185" y="1290" as="sourcePoint" />
            <mxPoint x="235" y="1370" as="targetPoint" />
          </mxGeometry>
        </mxCell>
        <mxCell id="gzQTVmxqFmnyjNceLkpb-159" value="" style="endArrow=none;html=1;rounded=0;fontSize=12;startSize=8;endSize=8;curved=1;exitX=1;exitY=0.5;exitDx=0;exitDy=0;entryX=0.5;entryY=1;entryDx=0;entryDy=0;" parent="1" source="gzQTVmxqFmnyjNceLkpb-152" target="gzQTVmxqFmnyjNceLkpb-145" edge="1">
          <mxGeometry relative="1" as="geometry">
            <mxPoint x="195" y="1300" as="sourcePoint" />
            <mxPoint x="245" y="1380" as="targetPoint" />
          </mxGeometry>
        </mxCell>
        <mxCell id="gzQTVmxqFmnyjNceLkpb-160" value="" style="endArrow=none;html=1;rounded=0;fontSize=12;startSize=8;endSize=8;curved=1;exitX=1;exitY=0.5;exitDx=0;exitDy=0;entryX=0.5;entryY=1;entryDx=0;entryDy=0;" parent="1" source="gzQTVmxqFmnyjNceLkpb-150" target="gzQTVmxqFmnyjNceLkpb-145" edge="1">
          <mxGeometry relative="1" as="geometry">
            <mxPoint x="205" y="1310" as="sourcePoint" />
            <mxPoint x="225" y="1445" as="targetPoint" />
          </mxGeometry>
        </mxCell>
        <mxCell id="gzQTVmxqFmnyjNceLkpb-161" value="" style="endArrow=none;html=1;rounded=0;fontSize=12;startSize=8;endSize=8;curved=1;exitX=0.5;exitY=1;exitDx=0;exitDy=0;entryX=0;entryY=0.5;entryDx=0;entryDy=0;" parent="1" source="gzQTVmxqFmnyjNceLkpb-145" target="gzQTVmxqFmnyjNceLkpb-155" edge="1">
          <mxGeometry relative="1" as="geometry">
            <mxPoint x="215" y="1320" as="sourcePoint" />
            <mxPoint x="265" y="1400" as="targetPoint" />
          </mxGeometry>
        </mxCell>
        <mxCell id="gzQTVmxqFmnyjNceLkpb-162" value="" style="endArrow=none;html=1;rounded=0;fontSize=12;startSize=8;endSize=8;curved=1;exitX=0.5;exitY=1;exitDx=0;exitDy=0;entryX=0;entryY=0.5;entryDx=0;entryDy=0;" parent="1" source="gzQTVmxqFmnyjNceLkpb-145" target="gzQTVmxqFmnyjNceLkpb-153" edge="1">
          <mxGeometry relative="1" as="geometry">
            <mxPoint x="225" y="1330" as="sourcePoint" />
            <mxPoint x="275" y="1410" as="targetPoint" />
          </mxGeometry>
        </mxCell>
        <mxCell id="gzQTVmxqFmnyjNceLkpb-165" value="Manage" style="shape=rhombus;perimeter=rhombusPerimeter;whiteSpace=wrap;html=1;align=center;fontSize=16;" parent="1" vertex="1">
          <mxGeometry x="155.04" y="1700" width="120" height="60" as="geometry" />
        </mxCell>
        <mxCell id="gzQTVmxqFmnyjNceLkpb-166" value="" style="endArrow=none;html=1;rounded=0;fontSize=12;startSize=8;endSize=8;curved=1;exitX=1;exitY=0.5;exitDx=0;exitDy=0;entryX=0;entryY=0.5;entryDx=0;entryDy=0;" parent="1" source="gzQTVmxqFmnyjNceLkpb-165" target="gzQTVmxqFmnyjNceLkpb-123" edge="1">
          <mxGeometry relative="1" as="geometry">
            <mxPoint x="295.04" y="1565" as="sourcePoint" />
            <mxPoint x="530" y="1790" as="targetPoint" />
          </mxGeometry>
        </mxCell>
        <mxCell id="gzQTVmxqFmnyjNceLkpb-167" value="1" style="resizable=0;html=1;whiteSpace=wrap;align=right;verticalAlign=bottom;fontSize=16;" parent="gzQTVmxqFmnyjNceLkpb-166" connectable="0" vertex="1">
          <mxGeometry x="1" relative="1" as="geometry">
            <mxPoint x="-130" as="offset" />
          </mxGeometry>
        </mxCell>
        <mxCell id="gzQTVmxqFmnyjNceLkpb-168" value="view" style="ellipse;whiteSpace=wrap;html=1;align=center;fontSize=16;" parent="1" vertex="1">
          <mxGeometry x="120.03999999999999" y="1580" width="80" height="40" as="geometry" />
        </mxCell>
        <mxCell id="gzQTVmxqFmnyjNceLkpb-169" value="Search for a author" style="ellipse;whiteSpace=wrap;html=1;align=center;fontSize=16;" parent="1" vertex="1">
          <mxGeometry x="35.04" y="1755" width="130" height="60" as="geometry" />
        </mxCell>
        <mxCell id="gzQTVmxqFmnyjNceLkpb-170" value="Add a author" style="ellipse;whiteSpace=wrap;html=1;align=center;fontSize=16;" parent="1" vertex="1">
          <mxGeometry x="70.03999999999999" y="1630" width="130" height="60" as="geometry" />
        </mxCell>
        <mxCell id="gzQTVmxqFmnyjNceLkpb-171" value="Sort list" style="ellipse;whiteSpace=wrap;html=1;align=center;fontSize=16;" parent="1" vertex="1">
          <mxGeometry x="65.03999999999999" y="1825" width="100" height="50" as="geometry" />
        </mxCell>
        <mxCell id="gzQTVmxqFmnyjNceLkpb-172" value="Disable/hide a author" style="ellipse;whiteSpace=wrap;html=1;align=center;fontSize=16;" parent="1" vertex="1">
          <mxGeometry x="255.04" y="1750" width="130" height="70" as="geometry" />
        </mxCell>
        <mxCell id="gzQTVmxqFmnyjNceLkpb-173" value="Update information" style="ellipse;whiteSpace=wrap;html=1;align=center;fontSize=16;" parent="1" vertex="1">
          <mxGeometry x="255.04" y="1635" width="120" height="60" as="geometry" />
        </mxCell>
        <mxCell id="gzQTVmxqFmnyjNceLkpb-174" value="Enable/show a author" style="ellipse;whiteSpace=wrap;html=1;align=center;fontSize=16;" parent="1" vertex="1">
          <mxGeometry x="255.04" y="1825" width="130" height="70" as="geometry" />
        </mxCell>
        <mxCell id="gzQTVmxqFmnyjNceLkpb-175" value="" style="endArrow=none;html=1;rounded=0;fontSize=12;startSize=8;endSize=8;curved=1;exitX=1;exitY=0.5;exitDx=0;exitDy=0;entryX=0.5;entryY=0;entryDx=0;entryDy=0;" parent="1" source="gzQTVmxqFmnyjNceLkpb-168" target="gzQTVmxqFmnyjNceLkpb-165" edge="1">
          <mxGeometry relative="1" as="geometry">
            <mxPoint x="155.04" y="1795" as="sourcePoint" />
            <mxPoint x="315.04" y="1795" as="targetPoint" />
          </mxGeometry>
        </mxCell>
        <mxCell id="gzQTVmxqFmnyjNceLkpb-176" value="" style="endArrow=none;html=1;rounded=0;fontSize=12;startSize=8;endSize=8;curved=1;exitX=1;exitY=0.5;exitDx=0;exitDy=0;entryX=0.5;entryY=0;entryDx=0;entryDy=0;" parent="1" source="gzQTVmxqFmnyjNceLkpb-170" target="gzQTVmxqFmnyjNceLkpb-165" edge="1">
          <mxGeometry relative="1" as="geometry">
            <mxPoint x="175.04" y="1630" as="sourcePoint" />
            <mxPoint x="225.04" y="1675" as="targetPoint" />
          </mxGeometry>
        </mxCell>
        <mxCell id="gzQTVmxqFmnyjNceLkpb-177" value="" style="endArrow=none;html=1;rounded=0;fontSize=12;startSize=8;endSize=8;curved=1;exitX=0;exitY=0.5;exitDx=0;exitDy=0;entryX=0.5;entryY=0;entryDx=0;entryDy=0;" parent="1" source="gzQTVmxqFmnyjNceLkpb-173" target="gzQTVmxqFmnyjNceLkpb-165" edge="1">
          <mxGeometry relative="1" as="geometry">
            <mxPoint x="185.04" y="1640" as="sourcePoint" />
            <mxPoint x="235.04" y="1720" as="targetPoint" />
          </mxGeometry>
        </mxCell>
        <mxCell id="gzQTVmxqFmnyjNceLkpb-178" value="" style="endArrow=none;html=1;rounded=0;fontSize=12;startSize=8;endSize=8;curved=1;exitX=1;exitY=0.5;exitDx=0;exitDy=0;entryX=0.5;entryY=1;entryDx=0;entryDy=0;" parent="1" source="gzQTVmxqFmnyjNceLkpb-171" target="gzQTVmxqFmnyjNceLkpb-165" edge="1">
          <mxGeometry relative="1" as="geometry">
            <mxPoint x="195.04" y="1650" as="sourcePoint" />
            <mxPoint x="245.04" y="1730" as="targetPoint" />
          </mxGeometry>
        </mxCell>
        <mxCell id="gzQTVmxqFmnyjNceLkpb-179" value="" style="endArrow=none;html=1;rounded=0;fontSize=12;startSize=8;endSize=8;curved=1;exitX=1;exitY=0.5;exitDx=0;exitDy=0;entryX=0.5;entryY=1;entryDx=0;entryDy=0;" parent="1" source="gzQTVmxqFmnyjNceLkpb-169" target="gzQTVmxqFmnyjNceLkpb-165" edge="1">
          <mxGeometry relative="1" as="geometry">
            <mxPoint x="205.04" y="1660" as="sourcePoint" />
            <mxPoint x="225.04" y="1795" as="targetPoint" />
          </mxGeometry>
        </mxCell>
        <mxCell id="gzQTVmxqFmnyjNceLkpb-180" value="" style="endArrow=none;html=1;rounded=0;fontSize=12;startSize=8;endSize=8;curved=1;exitX=0.5;exitY=1;exitDx=0;exitDy=0;entryX=0;entryY=0.5;entryDx=0;entryDy=0;" parent="1" source="gzQTVmxqFmnyjNceLkpb-165" target="gzQTVmxqFmnyjNceLkpb-174" edge="1">
          <mxGeometry relative="1" as="geometry">
            <mxPoint x="215.04" y="1670" as="sourcePoint" />
            <mxPoint x="265.04" y="1750" as="targetPoint" />
          </mxGeometry>
        </mxCell>
        <mxCell id="gzQTVmxqFmnyjNceLkpb-181" value="" style="endArrow=none;html=1;rounded=0;fontSize=12;startSize=8;endSize=8;curved=1;exitX=0.5;exitY=1;exitDx=0;exitDy=0;entryX=0;entryY=0.5;entryDx=0;entryDy=0;" parent="1" source="gzQTVmxqFmnyjNceLkpb-165" target="gzQTVmxqFmnyjNceLkpb-172" edge="1">
          <mxGeometry relative="1" as="geometry">
            <mxPoint x="225.04" y="1680" as="sourcePoint" />
            <mxPoint x="275.04" y="1760" as="targetPoint" />
          </mxGeometry>
        </mxCell>
        <mxCell id="gzQTVmxqFmnyjNceLkpb-187" value="Manage" style="shape=rhombus;perimeter=rhombusPerimeter;whiteSpace=wrap;html=1;align=center;fontSize=16;" parent="1" vertex="1">
          <mxGeometry x="155.04" y="2050" width="120" height="60" as="geometry" />
        </mxCell>
        <mxCell id="gzQTVmxqFmnyjNceLkpb-188" value="" style="endArrow=none;html=1;rounded=0;fontSize=12;startSize=8;endSize=8;curved=1;exitX=1;exitY=0.5;exitDx=0;exitDy=0;entryX=0;entryY=0.5;entryDx=0;entryDy=0;" parent="1" source="gzQTVmxqFmnyjNceLkpb-187" target="gzQTVmxqFmnyjNceLkpb-124" edge="1">
          <mxGeometry relative="1" as="geometry">
            <mxPoint x="295.04" y="1915" as="sourcePoint" />
            <mxPoint x="550" y="2170" as="targetPoint" />
          </mxGeometry>
        </mxCell>
        <mxCell id="gzQTVmxqFmnyjNceLkpb-189" value="1" style="resizable=0;html=1;whiteSpace=wrap;align=right;verticalAlign=bottom;fontSize=16;" parent="gzQTVmxqFmnyjNceLkpb-188" connectable="0" vertex="1">
          <mxGeometry x="1" relative="1" as="geometry">
            <mxPoint x="-130" as="offset" />
          </mxGeometry>
        </mxCell>
        <mxCell id="gzQTVmxqFmnyjNceLkpb-190" value="view" style="ellipse;whiteSpace=wrap;html=1;align=center;fontSize=16;" parent="1" vertex="1">
          <mxGeometry x="120.03999999999999" y="1930" width="80" height="40" as="geometry" />
        </mxCell>
        <mxCell id="gzQTVmxqFmnyjNceLkpb-191" value="Search for a author" style="ellipse;whiteSpace=wrap;html=1;align=center;fontSize=16;" parent="1" vertex="1">
          <mxGeometry x="35.04" y="2105" width="130" height="60" as="geometry" />
        </mxCell>
        <mxCell id="gzQTVmxqFmnyjNceLkpb-192" value="Add a author" style="ellipse;whiteSpace=wrap;html=1;align=center;fontSize=16;" parent="1" vertex="1">
          <mxGeometry x="70.03999999999999" y="1980" width="130" height="60" as="geometry" />
        </mxCell>
        <mxCell id="gzQTVmxqFmnyjNceLkpb-193" value="Sort list" style="ellipse;whiteSpace=wrap;html=1;align=center;fontSize=16;" parent="1" vertex="1">
          <mxGeometry x="65.03999999999999" y="2175" width="100" height="50" as="geometry" />
        </mxCell>
        <mxCell id="gzQTVmxqFmnyjNceLkpb-194" value="Disable/hide a author" style="ellipse;whiteSpace=wrap;html=1;align=center;fontSize=16;" parent="1" vertex="1">
          <mxGeometry x="255.03999999999996" y="2100" width="130" height="70" as="geometry" />
        </mxCell>
        <mxCell id="gzQTVmxqFmnyjNceLkpb-195" value="Update information" style="ellipse;whiteSpace=wrap;html=1;align=center;fontSize=16;" parent="1" vertex="1">
          <mxGeometry x="255.03999999999996" y="1985" width="120" height="60" as="geometry" />
        </mxCell>
        <mxCell id="gzQTVmxqFmnyjNceLkpb-196" value="Enable/show a author" style="ellipse;whiteSpace=wrap;html=1;align=center;fontSize=16;" parent="1" vertex="1">
          <mxGeometry x="255.03999999999996" y="2175" width="130" height="70" as="geometry" />
        </mxCell>
        <mxCell id="gzQTVmxqFmnyjNceLkpb-197" value="" style="endArrow=none;html=1;rounded=0;fontSize=12;startSize=8;endSize=8;curved=1;exitX=1;exitY=0.5;exitDx=0;exitDy=0;entryX=0.5;entryY=0;entryDx=0;entryDy=0;" parent="1" source="gzQTVmxqFmnyjNceLkpb-190" target="gzQTVmxqFmnyjNceLkpb-187" edge="1">
          <mxGeometry relative="1" as="geometry">
            <mxPoint x="155.04" y="2145" as="sourcePoint" />
            <mxPoint x="315.04" y="2145" as="targetPoint" />
          </mxGeometry>
        </mxCell>
        <mxCell id="gzQTVmxqFmnyjNceLkpb-198" value="" style="endArrow=none;html=1;rounded=0;fontSize=12;startSize=8;endSize=8;curved=1;exitX=1;exitY=0.5;exitDx=0;exitDy=0;entryX=0.5;entryY=0;entryDx=0;entryDy=0;" parent="1" source="gzQTVmxqFmnyjNceLkpb-192" target="gzQTVmxqFmnyjNceLkpb-187" edge="1">
          <mxGeometry relative="1" as="geometry">
            <mxPoint x="175.04" y="1980" as="sourcePoint" />
            <mxPoint x="225.04" y="2025" as="targetPoint" />
          </mxGeometry>
        </mxCell>
        <mxCell id="gzQTVmxqFmnyjNceLkpb-199" value="" style="endArrow=none;html=1;rounded=0;fontSize=12;startSize=8;endSize=8;curved=1;exitX=0;exitY=0.5;exitDx=0;exitDy=0;entryX=0.5;entryY=0;entryDx=0;entryDy=0;" parent="1" source="gzQTVmxqFmnyjNceLkpb-195" target="gzQTVmxqFmnyjNceLkpb-187" edge="1">
          <mxGeometry relative="1" as="geometry">
            <mxPoint x="185.04" y="1990" as="sourcePoint" />
            <mxPoint x="235.04" y="2070" as="targetPoint" />
          </mxGeometry>
        </mxCell>
        <mxCell id="gzQTVmxqFmnyjNceLkpb-200" value="" style="endArrow=none;html=1;rounded=0;fontSize=12;startSize=8;endSize=8;curved=1;exitX=1;exitY=0.5;exitDx=0;exitDy=0;entryX=0.5;entryY=1;entryDx=0;entryDy=0;" parent="1" source="gzQTVmxqFmnyjNceLkpb-193" target="gzQTVmxqFmnyjNceLkpb-187" edge="1">
          <mxGeometry relative="1" as="geometry">
            <mxPoint x="195.04" y="2000" as="sourcePoint" />
            <mxPoint x="245.04" y="2080" as="targetPoint" />
          </mxGeometry>
        </mxCell>
        <mxCell id="gzQTVmxqFmnyjNceLkpb-201" value="" style="endArrow=none;html=1;rounded=0;fontSize=12;startSize=8;endSize=8;curved=1;exitX=1;exitY=0.5;exitDx=0;exitDy=0;entryX=0.5;entryY=1;entryDx=0;entryDy=0;" parent="1" source="gzQTVmxqFmnyjNceLkpb-191" target="gzQTVmxqFmnyjNceLkpb-187" edge="1">
          <mxGeometry relative="1" as="geometry">
            <mxPoint x="205.04" y="2010" as="sourcePoint" />
            <mxPoint x="225.04" y="2145" as="targetPoint" />
          </mxGeometry>
        </mxCell>
        <mxCell id="gzQTVmxqFmnyjNceLkpb-202" value="" style="endArrow=none;html=1;rounded=0;fontSize=12;startSize=8;endSize=8;curved=1;exitX=0.5;exitY=1;exitDx=0;exitDy=0;entryX=0;entryY=0.5;entryDx=0;entryDy=0;" parent="1" source="gzQTVmxqFmnyjNceLkpb-187" target="gzQTVmxqFmnyjNceLkpb-196" edge="1">
          <mxGeometry relative="1" as="geometry">
            <mxPoint x="215.04" y="2020" as="sourcePoint" />
            <mxPoint x="265.04" y="2100" as="targetPoint" />
          </mxGeometry>
        </mxCell>
        <mxCell id="gzQTVmxqFmnyjNceLkpb-203" value="" style="endArrow=none;html=1;rounded=0;fontSize=12;startSize=8;endSize=8;curved=1;exitX=0.5;exitY=1;exitDx=0;exitDy=0;entryX=0;entryY=0.5;entryDx=0;entryDy=0;" parent="1" source="gzQTVmxqFmnyjNceLkpb-187" target="gzQTVmxqFmnyjNceLkpb-194" edge="1">
          <mxGeometry relative="1" as="geometry">
            <mxPoint x="225.04" y="2030" as="sourcePoint" />
            <mxPoint x="275.04" y="2110" as="targetPoint" />
          </mxGeometry>
        </mxCell>
        <mxCell id="mLm1G3g0rnV6FUSJvQgP-1" value="Numerical order" style="ellipse;whiteSpace=wrap;html=1;align=center;fontSize=16;" parent="1" vertex="1">
          <mxGeometry x="685" y="1060" width="125" height="50" as="geometry" />
        </mxCell>
        <mxCell id="mLm1G3g0rnV6FUSJvQgP-3" value="Name" style="ellipse;whiteSpace=wrap;html=1;align=center;fontSize=16;" parent="1" vertex="1">
          <mxGeometry x="-920" y="710" width="100" height="40" as="geometry" />
        </mxCell>
        <mxCell id="mLm1G3g0rnV6FUSJvQgP-5" value="Header" style="ellipse;whiteSpace=wrap;html=1;align=center;fontSize=16;" parent="1" vertex="1">
          <mxGeometry x="-920" y="760" width="100" height="40" as="geometry" />
        </mxCell>
        <mxCell id="mLm1G3g0rnV6FUSJvQgP-6" value="Content" style="ellipse;whiteSpace=wrap;html=1;align=center;fontSize=16;" parent="1" vertex="1">
          <mxGeometry x="-920" y="810" width="100" height="40" as="geometry" />
        </mxCell>
        <mxCell id="mLm1G3g0rnV6FUSJvQgP-7" value="Footer" style="ellipse;whiteSpace=wrap;html=1;align=center;fontSize=16;" parent="1" vertex="1">
          <mxGeometry x="-920" y="860" width="100" height="40" as="geometry" />
        </mxCell>
        <mxCell id="mLm1G3g0rnV6FUSJvQgP-9" value="" style="endArrow=none;html=1;rounded=0;fontSize=12;startSize=8;endSize=8;curved=1;exitX=1;exitY=0.5;exitDx=0;exitDy=0;entryX=0;entryY=0.5;entryDx=0;entryDy=0;" parent="1" source="mLm1G3g0rnV6FUSJvQgP-3" target="gzQTVmxqFmnyjNceLkpb-1" edge="1">
          <mxGeometry relative="1" as="geometry">
            <mxPoint x="-810" y="680" as="sourcePoint" />
            <mxPoint x="-780" y="820" as="targetPoint" />
          </mxGeometry>
        </mxCell>
        <mxCell id="mLm1G3g0rnV6FUSJvQgP-10" value="" style="endArrow=none;html=1;rounded=0;fontSize=12;startSize=8;endSize=8;curved=1;exitX=1;exitY=0.5;exitDx=0;exitDy=0;entryX=0;entryY=0.5;entryDx=0;entryDy=0;" parent="1" source="mLm1G3g0rnV6FUSJvQgP-5" target="gzQTVmxqFmnyjNceLkpb-1" edge="1">
          <mxGeometry relative="1" as="geometry">
            <mxPoint x="-800" y="690" as="sourcePoint" />
            <mxPoint x="-740" y="815" as="targetPoint" />
          </mxGeometry>
        </mxCell>
        <mxCell id="mLm1G3g0rnV6FUSJvQgP-11" value="" style="endArrow=none;html=1;rounded=0;fontSize=12;startSize=8;endSize=8;curved=1;exitX=1;exitY=0.5;exitDx=0;exitDy=0;entryX=0;entryY=0.5;entryDx=0;entryDy=0;" parent="1" source="mLm1G3g0rnV6FUSJvQgP-6" target="gzQTVmxqFmnyjNceLkpb-1" edge="1">
          <mxGeometry relative="1" as="geometry">
            <mxPoint x="-790" y="700" as="sourcePoint" />
            <mxPoint x="-730" y="825" as="targetPoint" />
          </mxGeometry>
        </mxCell>
        <mxCell id="mLm1G3g0rnV6FUSJvQgP-12" value="" style="endArrow=none;html=1;rounded=0;fontSize=12;startSize=8;endSize=8;curved=1;exitX=1;exitY=0.5;exitDx=0;exitDy=0;entryX=0;entryY=0.5;entryDx=0;entryDy=0;" parent="1" source="mLm1G3g0rnV6FUSJvQgP-7" target="gzQTVmxqFmnyjNceLkpb-1" edge="1">
          <mxGeometry relative="1" as="geometry">
            <mxPoint x="-780" y="710" as="sourcePoint" />
            <mxPoint x="-720" y="835" as="targetPoint" />
          </mxGeometry>
        </mxCell>
        <mxCell id="mLm1G3g0rnV6FUSJvQgP-13" value="&lt;u&gt;Logo&lt;/u&gt;" style="ellipse;whiteSpace=wrap;html=1;align=center;fontSize=16;" parent="1" vertex="1">
          <mxGeometry x="-920" y="660" width="100" height="40" as="geometry" />
        </mxCell>
        <mxCell id="mLm1G3g0rnV6FUSJvQgP-14" value="" style="endArrow=none;html=1;rounded=0;fontSize=12;startSize=8;endSize=8;curved=1;exitX=1;exitY=0.5;exitDx=0;exitDy=0;entryX=0;entryY=0.5;entryDx=0;entryDy=0;" parent="1" source="mLm1G3g0rnV6FUSJvQgP-13" target="gzQTVmxqFmnyjNceLkpb-1" edge="1">
          <mxGeometry relative="1" as="geometry">
            <mxPoint x="-810" y="740" as="sourcePoint" />
            <mxPoint x="-760" y="790" as="targetPoint" />
          </mxGeometry>
        </mxCell>
        <mxCell id="mLm1G3g0rnV6FUSJvQgP-15" value="Book category" style="whiteSpace=wrap;html=1;align=center;fontSize=16;" parent="1" vertex="1">
          <mxGeometry x="1160" y="1020" width="120" height="50" as="geometry" />
        </mxCell>
        <mxCell id="mLm1G3g0rnV6FUSJvQgP-16" value="Book publisher" style="whiteSpace=wrap;html=1;align=center;fontSize=16;" parent="1" vertex="1">
          <mxGeometry x="1160" y="1355" width="120" height="50" as="geometry" />
        </mxCell>
        <mxCell id="mLm1G3g0rnV6FUSJvQgP-17" value="Book author" style="whiteSpace=wrap;html=1;align=center;fontSize=16;" parent="1" vertex="1">
          <mxGeometry x="1160" y="1705" width="120" height="50" as="geometry" />
        </mxCell>
        <mxCell id="mLm1G3g0rnV6FUSJvQgP-18" value="&lt;u&gt;IDcategory&lt;/u&gt;" style="ellipse;whiteSpace=wrap;html=1;align=center;fontSize=16;" parent="1" vertex="1">
          <mxGeometry x="1340" y="1060" width="100" height="40" as="geometry" />
        </mxCell>
        <mxCell id="mLm1G3g0rnV6FUSJvQgP-19" value="Name of Category" style="ellipse;whiteSpace=wrap;html=1;align=center;fontSize=16;" parent="1" vertex="1">
          <mxGeometry x="1340" y="1110" width="140" height="55" as="geometry" />
        </mxCell>
        <mxCell id="mLm1G3g0rnV6FUSJvQgP-22" value="&lt;u&gt;IDcategory&lt;/u&gt;" style="ellipse;whiteSpace=wrap;html=1;align=center;fontSize=16;" parent="1" vertex="1">
          <mxGeometry x="685" y="1130" width="100" height="40" as="geometry" />
        </mxCell>
        <mxCell id="mLm1G3g0rnV6FUSJvQgP-23" value="" style="endArrow=none;html=1;rounded=0;fontSize=12;startSize=8;endSize=8;curved=1;exitX=1;exitY=0.5;exitDx=0;exitDy=0;entryX=0;entryY=0.5;entryDx=0;entryDy=0;" parent="1" source="gzQTVmxqFmnyjNceLkpb-120" target="mLm1G3g0rnV6FUSJvQgP-1" edge="1">
          <mxGeometry relative="1" as="geometry">
            <mxPoint x="770" y="1260" as="sourcePoint" />
            <mxPoint x="930" y="1260" as="targetPoint" />
          </mxGeometry>
        </mxCell>
        <mxCell id="mLm1G3g0rnV6FUSJvQgP-24" value="" style="endArrow=none;html=1;rounded=0;fontSize=12;startSize=8;endSize=8;curved=1;exitX=0;exitY=0.5;exitDx=0;exitDy=0;entryX=1;entryY=0.5;entryDx=0;entryDy=0;" parent="1" source="mLm1G3g0rnV6FUSJvQgP-22" target="gzQTVmxqFmnyjNceLkpb-120" edge="1">
          <mxGeometry relative="1" as="geometry">
            <mxPoint x="675" y="1055" as="sourcePoint" />
            <mxPoint x="695" y="1095" as="targetPoint" />
          </mxGeometry>
        </mxCell>
        <mxCell id="mLm1G3g0rnV6FUSJvQgP-25" value="" style="endArrow=none;html=1;rounded=0;fontSize=12;startSize=8;endSize=8;curved=1;exitX=0;exitY=0.5;exitDx=0;exitDy=0;entryX=1;entryY=0.5;entryDx=0;entryDy=0;" parent="1" source="mLm1G3g0rnV6FUSJvQgP-18" target="mLm1G3g0rnV6FUSJvQgP-15" edge="1">
          <mxGeometry relative="1" as="geometry">
            <mxPoint x="685" y="1065" as="sourcePoint" />
            <mxPoint x="705" y="1105" as="targetPoint" />
          </mxGeometry>
        </mxCell>
        <mxCell id="mLm1G3g0rnV6FUSJvQgP-26" value="" style="endArrow=none;html=1;rounded=0;fontSize=12;startSize=8;endSize=8;curved=1;exitX=1;exitY=0.5;exitDx=0;exitDy=0;entryX=0;entryY=0.5;entryDx=0;entryDy=0;" parent="1" source="mLm1G3g0rnV6FUSJvQgP-15" target="mLm1G3g0rnV6FUSJvQgP-19" edge="1">
          <mxGeometry relative="1" as="geometry">
            <mxPoint x="1330" y="1110" as="sourcePoint" />
            <mxPoint x="1290" y="1055" as="targetPoint" />
          </mxGeometry>
        </mxCell>
        <mxCell id="mLm1G3g0rnV6FUSJvQgP-27" value="Number of books" style="ellipse;whiteSpace=wrap;html=1;align=center;fontSize=16;" parent="1" vertex="1">
          <mxGeometry x="1340" y="1170" width="140" height="50" as="geometry" />
        </mxCell>
        <mxCell id="mLm1G3g0rnV6FUSJvQgP-28" value="" style="endArrow=none;html=1;rounded=0;fontSize=12;startSize=8;endSize=8;curved=1;exitX=0;exitY=0.5;exitDx=0;exitDy=0;entryX=1;entryY=0.5;entryDx=0;entryDy=0;" parent="1" source="mLm1G3g0rnV6FUSJvQgP-27" target="mLm1G3g0rnV6FUSJvQgP-15" edge="1">
          <mxGeometry relative="1" as="geometry">
            <mxPoint x="1290" y="1055" as="sourcePoint" />
            <mxPoint x="1350" y="1148" as="targetPoint" />
          </mxGeometry>
        </mxCell>
        <mxCell id="mLm1G3g0rnV6FUSJvQgP-29" value="Numerical order" style="ellipse;whiteSpace=wrap;html=1;align=center;fontSize=16;" parent="1" vertex="1">
          <mxGeometry x="685" y="1415" width="125" height="50" as="geometry" />
        </mxCell>
        <mxCell id="mLm1G3g0rnV6FUSJvQgP-30" value="&lt;u&gt;IDPublisher&lt;/u&gt;" style="ellipse;whiteSpace=wrap;html=1;align=center;fontSize=16;" parent="1" vertex="1">
          <mxGeometry x="685" y="1475" width="115" height="45" as="geometry" />
        </mxCell>
        <mxCell id="mLm1G3g0rnV6FUSJvQgP-31" value="&lt;u&gt;IDPublisher&lt;/u&gt;" style="ellipse;whiteSpace=wrap;html=1;align=center;fontSize=16;" parent="1" vertex="1">
          <mxGeometry x="1020" y="1405" width="115" height="45" as="geometry" />
        </mxCell>
        <mxCell id="mLm1G3g0rnV6FUSJvQgP-32" value="Name of Publisher" style="ellipse;whiteSpace=wrap;html=1;align=center;fontSize=16;" parent="1" vertex="1">
          <mxGeometry x="980" y="1460" width="155" height="55" as="geometry" />
        </mxCell>
        <mxCell id="mLm1G3g0rnV6FUSJvQgP-33" value="Number of books" style="ellipse;whiteSpace=wrap;html=1;align=center;fontSize=16;" parent="1" vertex="1">
          <mxGeometry x="995" y="1525" width="140" height="50" as="geometry" />
        </mxCell>
        <mxCell id="mLm1G3g0rnV6FUSJvQgP-37" value="Information" style="ellipse;whiteSpace=wrap;html=1;align=center;fontSize=16;" parent="1" vertex="1">
          <mxGeometry x="1000" y="1580" width="130" height="50" as="geometry" />
        </mxCell>
        <mxCell id="mLm1G3g0rnV6FUSJvQgP-38" value="" style="endArrow=none;html=1;rounded=0;fontSize=12;startSize=8;endSize=8;curved=1;exitX=1;exitY=0.5;exitDx=0;exitDy=0;entryX=0;entryY=0.5;entryDx=0;entryDy=0;" parent="1" source="mLm1G3g0rnV6FUSJvQgP-31" target="mLm1G3g0rnV6FUSJvQgP-16" edge="1">
          <mxGeometry relative="1" as="geometry">
            <mxPoint x="1080" y="1380" as="sourcePoint" />
            <mxPoint x="1240" y="1380" as="targetPoint" />
          </mxGeometry>
        </mxCell>
        <mxCell id="mLm1G3g0rnV6FUSJvQgP-39" value="" style="endArrow=none;html=1;rounded=0;fontSize=12;startSize=8;endSize=8;curved=1;exitX=1;exitY=0.5;exitDx=0;exitDy=0;entryX=0;entryY=0.5;entryDx=0;entryDy=0;" parent="1" source="mLm1G3g0rnV6FUSJvQgP-32" target="mLm1G3g0rnV6FUSJvQgP-16" edge="1">
          <mxGeometry relative="1" as="geometry">
            <mxPoint x="1145" y="1438" as="sourcePoint" />
            <mxPoint x="1210" y="1440" as="targetPoint" />
          </mxGeometry>
        </mxCell>
        <mxCell id="mLm1G3g0rnV6FUSJvQgP-40" value="" style="endArrow=none;html=1;rounded=0;fontSize=12;startSize=8;endSize=8;curved=1;exitX=1;exitY=0.5;exitDx=0;exitDy=0;entryX=0;entryY=0.5;entryDx=0;entryDy=0;" parent="1" source="mLm1G3g0rnV6FUSJvQgP-33" target="mLm1G3g0rnV6FUSJvQgP-16" edge="1">
          <mxGeometry relative="1" as="geometry">
            <mxPoint x="1145" y="1498" as="sourcePoint" />
            <mxPoint x="1170" y="1403" as="targetPoint" />
          </mxGeometry>
        </mxCell>
        <mxCell id="mLm1G3g0rnV6FUSJvQgP-41" value="" style="endArrow=none;html=1;rounded=0;fontSize=12;startSize=8;endSize=8;curved=1;exitX=0;exitY=0.5;exitDx=0;exitDy=0;entryX=1;entryY=0.5;entryDx=0;entryDy=0;" parent="1" source="mLm1G3g0rnV6FUSJvQgP-16" target="mLm1G3g0rnV6FUSJvQgP-37" edge="1">
          <mxGeometry relative="1" as="geometry">
            <mxPoint x="1145" y="1498" as="sourcePoint" />
            <mxPoint x="1170" y="1390" as="targetPoint" />
          </mxGeometry>
        </mxCell>
        <mxCell id="mLm1G3g0rnV6FUSJvQgP-42" value="&lt;u&gt;IDAuthor&lt;/u&gt;" style="ellipse;whiteSpace=wrap;html=1;align=center;fontSize=16;" parent="1" vertex="1">
          <mxGeometry x="1020" y="1750" width="115" height="45" as="geometry" />
        </mxCell>
        <mxCell id="mLm1G3g0rnV6FUSJvQgP-43" value="Fullname" style="ellipse;whiteSpace=wrap;html=1;align=center;fontSize=16;" parent="1" vertex="1">
          <mxGeometry x="870" y="1780" width="90" height="40" as="geometry" />
        </mxCell>
        <mxCell id="mLm1G3g0rnV6FUSJvQgP-45" value="Information" style="ellipse;whiteSpace=wrap;html=1;align=center;fontSize=16;" parent="1" vertex="1">
          <mxGeometry x="1005" y="1800" width="130" height="50" as="geometry" />
        </mxCell>
        <mxCell id="mLm1G3g0rnV6FUSJvQgP-46" value="" style="endArrow=none;html=1;rounded=0;fontSize=12;startSize=8;endSize=8;curved=1;exitX=1;exitY=0.5;exitDx=0;exitDy=0;entryX=0;entryY=0.5;entryDx=0;entryDy=0;" parent="1" source="mLm1G3g0rnV6FUSJvQgP-42" target="mLm1G3g0rnV6FUSJvQgP-17" edge="1">
          <mxGeometry relative="1" as="geometry">
            <mxPoint x="1080" y="1725" as="sourcePoint" />
            <mxPoint x="1140" y="1720" as="targetPoint" />
          </mxGeometry>
        </mxCell>
        <mxCell id="mLm1G3g0rnV6FUSJvQgP-48" value="" style="endArrow=none;html=1;rounded=0;fontSize=12;startSize=8;endSize=8;curved=1;exitX=1;exitY=0.5;exitDx=0;exitDy=0;entryX=0;entryY=0.5;entryDx=0;entryDy=0;" parent="1" source="mLm1G3g0rnV6FUSJvQgP-45" target="mLm1G3g0rnV6FUSJvQgP-17" edge="1">
          <mxGeometry relative="1" as="geometry">
            <mxPoint x="1135" y="1895" as="sourcePoint" />
            <mxPoint x="1160" y="1725" as="targetPoint" />
          </mxGeometry>
        </mxCell>
        <mxCell id="mLm1G3g0rnV6FUSJvQgP-50" value="Age" style="ellipse;whiteSpace=wrap;html=1;align=center;fontSize=16;" parent="1" vertex="1">
          <mxGeometry x="875" y="1825" width="80" height="40" as="geometry" />
        </mxCell>
        <mxCell id="mLm1G3g0rnV6FUSJvQgP-51" value="Date of birth" style="ellipse;whiteSpace=wrap;html=1;align=center;fontSize=16;" parent="1" vertex="1">
          <mxGeometry x="850" y="1870" width="105" height="40" as="geometry" />
        </mxCell>
        <mxCell id="mLm1G3g0rnV6FUSJvQgP-53" value="Sex" style="ellipse;whiteSpace=wrap;html=1;align=center;fontSize=16;" parent="1" vertex="1">
          <mxGeometry x="870" y="1970" width="80" height="40" as="geometry" />
        </mxCell>
        <mxCell id="mLm1G3g0rnV6FUSJvQgP-54" value="" style="endArrow=none;html=1;rounded=0;fontSize=12;startSize=8;endSize=8;curved=1;exitX=0;exitY=0.5;exitDx=0;exitDy=0;entryX=1;entryY=0.5;entryDx=0;entryDy=0;" parent="1" source="mLm1G3g0rnV6FUSJvQgP-45" target="mLm1G3g0rnV6FUSJvQgP-43" edge="1">
          <mxGeometry relative="1" as="geometry">
            <mxPoint x="970" y="1930" as="sourcePoint" />
            <mxPoint x="995" y="1830" as="targetPoint" />
          </mxGeometry>
        </mxCell>
        <mxCell id="mLm1G3g0rnV6FUSJvQgP-55" value="" style="endArrow=none;html=1;rounded=0;fontSize=12;startSize=8;endSize=8;curved=1;exitX=0;exitY=0.5;exitDx=0;exitDy=0;entryX=1;entryY=0.5;entryDx=0;entryDy=0;" parent="1" source="mLm1G3g0rnV6FUSJvQgP-45" target="mLm1G3g0rnV6FUSJvQgP-50" edge="1">
          <mxGeometry relative="1" as="geometry">
            <mxPoint x="1015" y="1835" as="sourcePoint" />
            <mxPoint x="970" y="1810" as="targetPoint" />
          </mxGeometry>
        </mxCell>
        <mxCell id="mLm1G3g0rnV6FUSJvQgP-56" value="Date of death" style="ellipse;whiteSpace=wrap;html=1;align=center;dashed=1;fontSize=16;" parent="1" vertex="1">
          <mxGeometry x="847.5" y="1920" width="110" height="40" as="geometry" />
        </mxCell>
        <mxCell id="mLm1G3g0rnV6FUSJvQgP-57" value="" style="endArrow=none;html=1;rounded=0;fontSize=12;startSize=8;endSize=8;curved=1;exitX=0;exitY=0.5;exitDx=0;exitDy=0;entryX=1;entryY=0.5;entryDx=0;entryDy=0;" parent="1" source="mLm1G3g0rnV6FUSJvQgP-45" target="mLm1G3g0rnV6FUSJvQgP-51" edge="1">
          <mxGeometry relative="1" as="geometry">
            <mxPoint x="1015" y="1835" as="sourcePoint" />
            <mxPoint x="965" y="1855" as="targetPoint" />
          </mxGeometry>
        </mxCell>
        <mxCell id="mLm1G3g0rnV6FUSJvQgP-58" value="" style="endArrow=none;html=1;rounded=0;fontSize=12;startSize=8;endSize=8;curved=1;exitX=0;exitY=0.5;exitDx=0;exitDy=0;entryX=1;entryY=0.5;entryDx=0;entryDy=0;" parent="1" source="mLm1G3g0rnV6FUSJvQgP-45" target="mLm1G3g0rnV6FUSJvQgP-56" edge="1">
          <mxGeometry relative="1" as="geometry">
            <mxPoint x="1015" y="1835" as="sourcePoint" />
            <mxPoint x="965" y="1900" as="targetPoint" />
          </mxGeometry>
        </mxCell>
        <mxCell id="mLm1G3g0rnV6FUSJvQgP-59" value="" style="endArrow=none;html=1;rounded=0;fontSize=12;startSize=8;endSize=8;curved=1;exitX=0;exitY=0.5;exitDx=0;exitDy=0;entryX=1;entryY=0.5;entryDx=0;entryDy=0;" parent="1" source="mLm1G3g0rnV6FUSJvQgP-45" target="mLm1G3g0rnV6FUSJvQgP-53" edge="1">
          <mxGeometry relative="1" as="geometry">
            <mxPoint x="1015" y="1835" as="sourcePoint" />
            <mxPoint x="968" y="1950" as="targetPoint" />
          </mxGeometry>
        </mxCell>
        <mxCell id="mLm1G3g0rnV6FUSJvQgP-60" value="" style="endArrow=none;html=1;rounded=0;fontSize=12;startSize=8;endSize=8;curved=1;exitX=1;exitY=0.5;exitDx=0;exitDy=0;entryX=0;entryY=0.5;entryDx=0;entryDy=0;" parent="1" source="gzQTVmxqFmnyjNceLkpb-122" target="mLm1G3g0rnV6FUSJvQgP-29" edge="1">
          <mxGeometry relative="1" as="geometry">
            <mxPoint x="1170" y="1390" as="sourcePoint" />
            <mxPoint x="1140" y="1615" as="targetPoint" />
          </mxGeometry>
        </mxCell>
        <mxCell id="mLm1G3g0rnV6FUSJvQgP-61" value="" style="endArrow=none;html=1;rounded=0;fontSize=12;startSize=8;endSize=8;curved=1;entryX=1;entryY=0.5;entryDx=0;entryDy=0;exitX=0;exitY=0.5;exitDx=0;exitDy=0;" parent="1" source="mLm1G3g0rnV6FUSJvQgP-30" target="gzQTVmxqFmnyjNceLkpb-122" edge="1">
          <mxGeometry relative="1" as="geometry">
            <mxPoint x="670" y="1520" as="sourcePoint" />
            <mxPoint x="695" y="1450" as="targetPoint" />
          </mxGeometry>
        </mxCell>
        <mxCell id="mLm1G3g0rnV6FUSJvQgP-62" value="Numerical order" style="ellipse;whiteSpace=wrap;html=1;align=center;fontSize=16;" parent="1" vertex="1">
          <mxGeometry x="687.5" y="1760" width="125" height="50" as="geometry" />
        </mxCell>
        <mxCell id="mLm1G3g0rnV6FUSJvQgP-63" value="&lt;u&gt;IDAuthor&lt;/u&gt;" style="ellipse;whiteSpace=wrap;html=1;align=center;fontSize=16;" parent="1" vertex="1">
          <mxGeometry x="687.5" y="1820" width="115" height="45" as="geometry" />
        </mxCell>
        <mxCell id="mLm1G3g0rnV6FUSJvQgP-64" value="" style="endArrow=none;html=1;rounded=0;fontSize=12;startSize=8;endSize=8;curved=1;exitX=1;exitY=0.5;exitDx=0;exitDy=0;entryX=0;entryY=0.5;entryDx=0;entryDy=0;" parent="1" source="gzQTVmxqFmnyjNceLkpb-123" target="mLm1G3g0rnV6FUSJvQgP-62" edge="1">
          <mxGeometry relative="1" as="geometry">
            <mxPoint x="672.5" y="1725" as="sourcePoint" />
            <mxPoint x="1142.5" y="1960" as="targetPoint" />
          </mxGeometry>
        </mxCell>
        <mxCell id="mLm1G3g0rnV6FUSJvQgP-65" value="" style="endArrow=none;html=1;rounded=0;fontSize=12;startSize=8;endSize=8;curved=1;entryX=1;entryY=0.5;entryDx=0;entryDy=0;exitX=0;exitY=0.5;exitDx=0;exitDy=0;" parent="1" source="mLm1G3g0rnV6FUSJvQgP-63" target="gzQTVmxqFmnyjNceLkpb-123" edge="1">
          <mxGeometry relative="1" as="geometry">
            <mxPoint x="672.5" y="1865" as="sourcePoint" />
            <mxPoint x="672.5" y="1725" as="targetPoint" />
          </mxGeometry>
        </mxCell>
        <mxCell id="mLm1G3g0rnV6FUSJvQgP-66" value="&lt;u&gt;IDBook&lt;/u&gt;" style="ellipse;whiteSpace=wrap;html=1;align=center;fontSize=16;" parent="1" vertex="1">
          <mxGeometry x="1720" y="1525" width="100" height="40" as="geometry" />
        </mxCell>
        <mxCell id="mLm1G3g0rnV6FUSJvQgP-68" value="Name" style="ellipse;whiteSpace=wrap;html=1;align=center;fontSize=16;" parent="1" vertex="1">
          <mxGeometry x="1720" y="1575" width="100" height="40" as="geometry" />
        </mxCell>
        <mxCell id="mLm1G3g0rnV6FUSJvQgP-69" value="Author" style="ellipse;whiteSpace=wrap;html=1;align=center;fontSize=16;" parent="1" vertex="1">
          <mxGeometry x="1720" y="1620" width="100" height="40" as="geometry" />
        </mxCell>
        <mxCell id="mLm1G3g0rnV6FUSJvQgP-70" value="Publication date" style="ellipse;whiteSpace=wrap;html=1;align=center;fontSize=16;" parent="1" vertex="1">
          <mxGeometry x="1720" y="1670" width="140" height="60" as="geometry" />
        </mxCell>
        <mxCell id="mLm1G3g0rnV6FUSJvQgP-71" value="Number of books" style="ellipse;whiteSpace=wrap;html=1;align=center;fontSize=16;" parent="1" vertex="1">
          <mxGeometry x="1720" y="1740" width="140" height="50" as="geometry" />
        </mxCell>
        <mxCell id="mLm1G3g0rnV6FUSJvQgP-72" value="Price" style="ellipse;whiteSpace=wrap;html=1;align=center;fontSize=16;" parent="1" vertex="1">
          <mxGeometry x="1720" y="1800" width="90" height="40" as="geometry" />
        </mxCell>
        <mxCell id="mLm1G3g0rnV6FUSJvQgP-73" value="" style="endArrow=none;html=1;rounded=0;fontSize=12;startSize=8;endSize=8;curved=1;entryX=0;entryY=0.5;entryDx=0;entryDy=0;exitX=1;exitY=0.5;exitDx=0;exitDy=0;" parent="1" source="gzQTVmxqFmnyjNceLkpb-121" target="mLm1G3g0rnV6FUSJvQgP-66" edge="1">
          <mxGeometry relative="1" as="geometry">
            <mxPoint x="950" y="2010" as="sourcePoint" />
            <mxPoint x="1110" y="2010" as="targetPoint" />
          </mxGeometry>
        </mxCell>
        <mxCell id="mLm1G3g0rnV6FUSJvQgP-74" value="" style="endArrow=none;html=1;rounded=0;fontSize=12;startSize=8;endSize=8;curved=1;exitX=1;exitY=0.5;exitDx=0;exitDy=0;entryX=0;entryY=0.5;entryDx=0;entryDy=0;" parent="1" source="gzQTVmxqFmnyjNceLkpb-121" target="mLm1G3g0rnV6FUSJvQgP-68" edge="1">
          <mxGeometry relative="1" as="geometry">
            <mxPoint x="950" y="1880" as="sourcePoint" />
            <mxPoint x="1110" y="1880" as="targetPoint" />
          </mxGeometry>
        </mxCell>
        <mxCell id="mLm1G3g0rnV6FUSJvQgP-75" value="" style="endArrow=none;html=1;rounded=0;fontSize=12;startSize=8;endSize=8;curved=1;exitX=1;exitY=0.5;exitDx=0;exitDy=0;entryX=0;entryY=0.5;entryDx=0;entryDy=0;" parent="1" source="gzQTVmxqFmnyjNceLkpb-121" target="mLm1G3g0rnV6FUSJvQgP-69" edge="1">
          <mxGeometry relative="1" as="geometry">
            <mxPoint x="1360" y="2090" as="sourcePoint" />
            <mxPoint x="1430" y="2095" as="targetPoint" />
          </mxGeometry>
        </mxCell>
        <mxCell id="mLm1G3g0rnV6FUSJvQgP-76" value="" style="endArrow=none;html=1;rounded=0;fontSize=12;startSize=8;endSize=8;curved=1;exitX=1;exitY=0.5;exitDx=0;exitDy=0;entryX=0;entryY=0.5;entryDx=0;entryDy=0;" parent="1" source="gzQTVmxqFmnyjNceLkpb-121" target="mLm1G3g0rnV6FUSJvQgP-70" edge="1">
          <mxGeometry relative="1" as="geometry">
            <mxPoint x="1360" y="2090" as="sourcePoint" />
            <mxPoint x="1430" y="2145" as="targetPoint" />
          </mxGeometry>
        </mxCell>
        <mxCell id="mLm1G3g0rnV6FUSJvQgP-77" value="" style="endArrow=none;html=1;rounded=0;fontSize=12;startSize=8;endSize=8;curved=1;exitX=1;exitY=0.5;exitDx=0;exitDy=0;entryX=0;entryY=0.5;entryDx=0;entryDy=0;" parent="1" source="gzQTVmxqFmnyjNceLkpb-121" target="mLm1G3g0rnV6FUSJvQgP-71" edge="1">
          <mxGeometry relative="1" as="geometry">
            <mxPoint x="1360" y="2090" as="sourcePoint" />
            <mxPoint x="1430" y="2205" as="targetPoint" />
          </mxGeometry>
        </mxCell>
        <mxCell id="mLm1G3g0rnV6FUSJvQgP-78" value="" style="endArrow=none;html=1;rounded=0;fontSize=12;startSize=8;endSize=8;curved=1;exitX=1;exitY=0.5;exitDx=0;exitDy=0;entryX=0;entryY=0.5;entryDx=0;entryDy=0;" parent="1" source="gzQTVmxqFmnyjNceLkpb-121" target="mLm1G3g0rnV6FUSJvQgP-72" edge="1">
          <mxGeometry relative="1" as="geometry">
            <mxPoint x="1360" y="2090" as="sourcePoint" />
            <mxPoint x="1430" y="2275" as="targetPoint" />
          </mxGeometry>
        </mxCell>
        <mxCell id="mLm1G3g0rnV6FUSJvQgP-80" value="contains" style="shape=rhombus;perimeter=rhombusPerimeter;whiteSpace=wrap;html=1;align=center;fontSize=16;rotation=0;" parent="1" vertex="1">
          <mxGeometry x="860" y="1015" width="120" height="60" as="geometry" />
        </mxCell>
        <mxCell id="mLm1G3g0rnV6FUSJvQgP-81" value="" style="endArrow=none;html=1;rounded=0;fontSize=12;startSize=8;endSize=8;curved=1;exitX=1;exitY=0.5;exitDx=0;exitDy=0;entryX=0;entryY=0.5;entryDx=0;entryDy=0;" parent="1" source="gzQTVmxqFmnyjNceLkpb-120" target="mLm1G3g0rnV6FUSJvQgP-80" edge="1">
          <mxGeometry relative="1" as="geometry">
            <mxPoint x="1020" y="1290" as="sourcePoint" />
            <mxPoint x="1180" y="1290" as="targetPoint" />
          </mxGeometry>
        </mxCell>
        <mxCell id="mLm1G3g0rnV6FUSJvQgP-82" value="1" style="resizable=0;html=1;whiteSpace=wrap;align=right;verticalAlign=bottom;fontSize=16;" parent="mLm1G3g0rnV6FUSJvQgP-81" connectable="0" vertex="1">
          <mxGeometry x="1" relative="1" as="geometry">
            <mxPoint x="-86" as="offset" />
          </mxGeometry>
        </mxCell>
        <mxCell id="mLm1G3g0rnV6FUSJvQgP-83" value="" style="endArrow=none;html=1;rounded=0;fontSize=12;startSize=8;endSize=8;curved=1;exitX=1;exitY=0.5;exitDx=0;exitDy=0;entryX=0;entryY=0.5;entryDx=0;entryDy=0;" parent="1" source="mLm1G3g0rnV6FUSJvQgP-80" target="mLm1G3g0rnV6FUSJvQgP-15" edge="1">
          <mxGeometry relative="1" as="geometry">
            <mxPoint x="900" y="1180" as="sourcePoint" />
            <mxPoint x="1060" y="1180" as="targetPoint" />
          </mxGeometry>
        </mxCell>
        <mxCell id="mLm1G3g0rnV6FUSJvQgP-84" value="N" style="resizable=0;html=1;whiteSpace=wrap;align=right;verticalAlign=bottom;fontSize=16;" parent="mLm1G3g0rnV6FUSJvQgP-83" connectable="0" vertex="1">
          <mxGeometry x="1" relative="1" as="geometry">
            <mxPoint x="-82" as="offset" />
          </mxGeometry>
        </mxCell>
        <mxCell id="mLm1G3g0rnV6FUSJvQgP-86" value="contains" style="shape=rhombus;perimeter=rhombusPerimeter;whiteSpace=wrap;html=1;align=center;fontSize=16;rotation=0;" parent="1" vertex="1">
          <mxGeometry x="862.5" y="1350" width="120" height="60" as="geometry" />
        </mxCell>
        <mxCell id="mLm1G3g0rnV6FUSJvQgP-87" value="" style="endArrow=none;html=1;rounded=0;fontSize=12;startSize=8;endSize=8;curved=1;exitX=1;exitY=0.5;exitDx=0;exitDy=0;entryX=0;entryY=0.5;entryDx=0;entryDy=0;" parent="1" source="gzQTVmxqFmnyjNceLkpb-122" target="mLm1G3g0rnV6FUSJvQgP-86" edge="1">
          <mxGeometry relative="1" as="geometry">
            <mxPoint x="667.5" y="1380" as="sourcePoint" />
            <mxPoint x="1182.5" y="1625" as="targetPoint" />
          </mxGeometry>
        </mxCell>
        <mxCell id="mLm1G3g0rnV6FUSJvQgP-88" value="1" style="resizable=0;html=1;whiteSpace=wrap;align=right;verticalAlign=bottom;fontSize=16;" parent="mLm1G3g0rnV6FUSJvQgP-87" connectable="0" vertex="1">
          <mxGeometry x="1" relative="1" as="geometry">
            <mxPoint x="-86" as="offset" />
          </mxGeometry>
        </mxCell>
        <mxCell id="mLm1G3g0rnV6FUSJvQgP-89" value="" style="endArrow=none;html=1;rounded=0;fontSize=12;startSize=8;endSize=8;curved=1;exitX=1;exitY=0.5;exitDx=0;exitDy=0;entryX=0;entryY=0.5;entryDx=0;entryDy=0;" parent="1" source="mLm1G3g0rnV6FUSJvQgP-86" target="mLm1G3g0rnV6FUSJvQgP-16" edge="1">
          <mxGeometry relative="1" as="geometry">
            <mxPoint x="902.5" y="1515" as="sourcePoint" />
            <mxPoint x="1162.5" y="1380" as="targetPoint" />
          </mxGeometry>
        </mxCell>
        <mxCell id="mLm1G3g0rnV6FUSJvQgP-90" value="N" style="resizable=0;html=1;whiteSpace=wrap;align=right;verticalAlign=bottom;fontSize=16;" parent="mLm1G3g0rnV6FUSJvQgP-89" connectable="0" vertex="1">
          <mxGeometry x="1" relative="1" as="geometry">
            <mxPoint x="-82" as="offset" />
          </mxGeometry>
        </mxCell>
        <mxCell id="mLm1G3g0rnV6FUSJvQgP-92" value="contains" style="shape=rhombus;perimeter=rhombusPerimeter;whiteSpace=wrap;html=1;align=center;fontSize=16;rotation=0;" parent="1" vertex="1">
          <mxGeometry x="865" y="1700" width="120" height="60" as="geometry" />
        </mxCell>
        <mxCell id="mLm1G3g0rnV6FUSJvQgP-93" value="" style="endArrow=none;html=1;rounded=0;fontSize=12;startSize=8;endSize=8;curved=1;exitX=1;exitY=0.5;exitDx=0;exitDy=0;entryX=0;entryY=0.5;entryDx=0;entryDy=0;" parent="1" source="gzQTVmxqFmnyjNceLkpb-123" target="mLm1G3g0rnV6FUSJvQgP-92" edge="1">
          <mxGeometry relative="1" as="geometry">
            <mxPoint x="670" y="1730" as="sourcePoint" />
            <mxPoint x="1185" y="1975" as="targetPoint" />
          </mxGeometry>
        </mxCell>
        <mxCell id="mLm1G3g0rnV6FUSJvQgP-94" value="1" style="resizable=0;html=1;whiteSpace=wrap;align=right;verticalAlign=bottom;fontSize=16;" parent="mLm1G3g0rnV6FUSJvQgP-93" connectable="0" vertex="1">
          <mxGeometry x="1" relative="1" as="geometry">
            <mxPoint x="-86" as="offset" />
          </mxGeometry>
        </mxCell>
        <mxCell id="mLm1G3g0rnV6FUSJvQgP-95" value="" style="endArrow=none;html=1;rounded=0;fontSize=12;startSize=8;endSize=8;curved=1;exitX=1;exitY=0.5;exitDx=0;exitDy=0;entryX=0;entryY=0.5;entryDx=0;entryDy=0;" parent="1" source="mLm1G3g0rnV6FUSJvQgP-92" target="mLm1G3g0rnV6FUSJvQgP-17" edge="1">
          <mxGeometry relative="1" as="geometry">
            <mxPoint x="905" y="1865" as="sourcePoint" />
            <mxPoint x="1165" y="1730" as="targetPoint" />
          </mxGeometry>
        </mxCell>
        <mxCell id="mLm1G3g0rnV6FUSJvQgP-96" value="N" style="resizable=0;html=1;whiteSpace=wrap;align=right;verticalAlign=bottom;fontSize=16;" parent="mLm1G3g0rnV6FUSJvQgP-95" connectable="0" vertex="1">
          <mxGeometry x="1" relative="1" as="geometry">
            <mxPoint x="-82" as="offset" />
          </mxGeometry>
        </mxCell>
        <mxCell id="mLm1G3g0rnV6FUSJvQgP-98" value="contains" style="shape=rhombus;perimeter=rhombusPerimeter;whiteSpace=wrap;html=1;align=center;fontSize=16;rotation=0;" parent="1" vertex="1">
          <mxGeometry x="1240" y="2050" width="120" height="60" as="geometry" />
        </mxCell>
        <mxCell id="mLm1G3g0rnV6FUSJvQgP-99" value="" style="endArrow=none;html=1;rounded=0;fontSize=12;startSize=8;endSize=8;curved=1;exitX=1;exitY=0.5;exitDx=0;exitDy=0;entryX=0;entryY=0.5;entryDx=0;entryDy=0;" parent="1" source="gzQTVmxqFmnyjNceLkpb-124" target="mLm1G3g0rnV6FUSJvQgP-98" edge="1">
          <mxGeometry relative="1" as="geometry">
            <mxPoint x="972.5" y="2080" as="sourcePoint" />
            <mxPoint x="1487.5" y="2325" as="targetPoint" />
          </mxGeometry>
        </mxCell>
        <mxCell id="mLm1G3g0rnV6FUSJvQgP-100" value="1" style="resizable=0;html=1;whiteSpace=wrap;align=right;verticalAlign=bottom;fontSize=16;" parent="mLm1G3g0rnV6FUSJvQgP-99" connectable="0" vertex="1">
          <mxGeometry x="1" relative="1" as="geometry">
            <mxPoint x="-242" as="offset" />
          </mxGeometry>
        </mxCell>
        <mxCell id="mLm1G3g0rnV6FUSJvQgP-101" value="" style="endArrow=none;html=1;rounded=0;fontSize=12;startSize=8;endSize=8;curved=1;exitX=1;exitY=0.5;exitDx=0;exitDy=0;entryX=0;entryY=0.5;entryDx=0;entryDy=0;" parent="1" source="mLm1G3g0rnV6FUSJvQgP-98" target="gzQTVmxqFmnyjNceLkpb-121" edge="1">
          <mxGeometry relative="1" as="geometry">
            <mxPoint x="1207.5" y="2215" as="sourcePoint" />
            <mxPoint x="1467.5" y="2080" as="targetPoint" />
          </mxGeometry>
        </mxCell>
        <mxCell id="mLm1G3g0rnV6FUSJvQgP-102" value="N" style="resizable=0;html=1;whiteSpace=wrap;align=right;verticalAlign=bottom;fontSize=16;" parent="mLm1G3g0rnV6FUSJvQgP-101" connectable="0" vertex="1">
          <mxGeometry x="1" relative="1" as="geometry">
            <mxPoint x="-110" y="276" as="offset" />
          </mxGeometry>
        </mxCell>
        <mxCell id="mLm1G3g0rnV6FUSJvQgP-107" value="Has" style="shape=rhombus;perimeter=rhombusPerimeter;whiteSpace=wrap;html=1;align=center;fontSize=16;rotation=0;" parent="1" vertex="1">
          <mxGeometry x="1402.5" y="1350" width="120" height="60" as="geometry" />
        </mxCell>
        <mxCell id="mLm1G3g0rnV6FUSJvQgP-108" value="" style="endArrow=none;html=1;rounded=0;fontSize=12;startSize=8;endSize=8;curved=1;exitX=1;exitY=0.5;exitDx=0;exitDy=0;entryX=0;entryY=0.5;entryDx=0;entryDy=0;" parent="1" source="mLm1G3g0rnV6FUSJvQgP-16" target="mLm1G3g0rnV6FUSJvQgP-107" edge="1">
          <mxGeometry relative="1" as="geometry">
            <mxPoint x="1210" y="1380" as="sourcePoint" />
            <mxPoint x="1722.5" y="1625" as="targetPoint" />
          </mxGeometry>
        </mxCell>
        <mxCell id="mLm1G3g0rnV6FUSJvQgP-109" value="1" style="resizable=0;html=1;whiteSpace=wrap;align=right;verticalAlign=bottom;fontSize=16;" parent="mLm1G3g0rnV6FUSJvQgP-108" connectable="0" vertex="1">
          <mxGeometry x="1" relative="1" as="geometry">
            <mxPoint x="-63" as="offset" />
          </mxGeometry>
        </mxCell>
        <mxCell id="mLm1G3g0rnV6FUSJvQgP-110" value="" style="endArrow=none;html=1;rounded=0;fontSize=12;startSize=8;endSize=8;curved=1;exitX=1;exitY=0.5;exitDx=0;exitDy=0;entryX=0;entryY=0.5;entryDx=0;entryDy=0;" parent="1" source="mLm1G3g0rnV6FUSJvQgP-107" target="gzQTVmxqFmnyjNceLkpb-121" edge="1">
          <mxGeometry relative="1" as="geometry">
            <mxPoint x="1442.5" y="1515" as="sourcePoint" />
            <mxPoint x="1700" y="1380" as="targetPoint" />
          </mxGeometry>
        </mxCell>
        <mxCell id="mLm1G3g0rnV6FUSJvQgP-111" value="N" style="resizable=0;html=1;whiteSpace=wrap;align=right;verticalAlign=bottom;fontSize=16;" parent="mLm1G3g0rnV6FUSJvQgP-110" connectable="0" vertex="1">
          <mxGeometry x="1" relative="1" as="geometry">
            <mxPoint x="-30" y="-66" as="offset" />
          </mxGeometry>
        </mxCell>
        <mxCell id="mLm1G3g0rnV6FUSJvQgP-119" value="" style="endArrow=none;html=1;rounded=0;fontSize=12;startSize=8;endSize=8;curved=1;exitX=1;exitY=0.5;exitDx=0;exitDy=0;entryX=0;entryY=0.5;entryDx=0;entryDy=0;" parent="1" source="mLm1G3g0rnV6FUSJvQgP-15" target="mLm1G3g0rnV6FUSJvQgP-107" edge="1">
          <mxGeometry relative="1" as="geometry">
            <mxPoint x="1440" y="1350" as="sourcePoint" />
            <mxPoint x="1400" y="1380" as="targetPoint" />
          </mxGeometry>
        </mxCell>
        <mxCell id="mLm1G3g0rnV6FUSJvQgP-120" value="1" style="resizable=0;html=1;whiteSpace=wrap;align=right;verticalAlign=bottom;fontSize=16;" parent="mLm1G3g0rnV6FUSJvQgP-119" connectable="0" vertex="1">
          <mxGeometry x="1" relative="1" as="geometry">
            <mxPoint x="-40" y="-95" as="offset" />
          </mxGeometry>
        </mxCell>
        <mxCell id="mLm1G3g0rnV6FUSJvQgP-121" value="" style="endArrow=none;html=1;rounded=0;fontSize=12;startSize=8;endSize=8;curved=1;entryX=0;entryY=0.5;entryDx=0;entryDy=0;exitX=1;exitY=0.5;exitDx=0;exitDy=0;" parent="1" source="mLm1G3g0rnV6FUSJvQgP-17" target="mLm1G3g0rnV6FUSJvQgP-107" edge="1">
          <mxGeometry relative="1" as="geometry">
            <mxPoint x="1330" y="1520" as="sourcePoint" />
            <mxPoint x="1490" y="1520" as="targetPoint" />
          </mxGeometry>
        </mxCell>
        <mxCell id="mLm1G3g0rnV6FUSJvQgP-122" value="1" style="resizable=0;html=1;whiteSpace=wrap;align=right;verticalAlign=bottom;fontSize=16;" parent="mLm1G3g0rnV6FUSJvQgP-121" connectable="0" vertex="1">
          <mxGeometry x="1" relative="1" as="geometry">
            <mxPoint x="-53" y="160" as="offset" />
          </mxGeometry>
        </mxCell>
        <mxCell id="mLm1G3g0rnV6FUSJvQgP-124" value="" style="endArrow=none;html=1;rounded=0;fontSize=12;startSize=8;endSize=8;curved=1;exitX=1;exitY=0.5;exitDx=0;exitDy=0;" parent="1" source="MoQPxjxc0kEaCH0tuq0D-22" edge="1">
          <mxGeometry relative="1" as="geometry">
            <mxPoint x="-30" y="1090" as="sourcePoint" />
            <mxPoint x="90" y="1380" as="targetPoint" />
          </mxGeometry>
        </mxCell>
        <mxCell id="mLm1G3g0rnV6FUSJvQgP-125" value="N" style="resizable=0;html=1;whiteSpace=wrap;align=right;verticalAlign=bottom;fontSize=16;" parent="mLm1G3g0rnV6FUSJvQgP-124" connectable="0" vertex="1">
          <mxGeometry x="1" relative="1" as="geometry">
            <mxPoint x="-60" y="-95" as="offset" />
          </mxGeometry>
        </mxCell>
        <mxCell id="mLm1G3g0rnV6FUSJvQgP-126" value="" style="endArrow=none;html=1;rounded=0;fontSize=12;startSize=8;endSize=8;curved=1;entryX=0;entryY=0.5;entryDx=0;entryDy=0;" parent="1" target="gzQTVmxqFmnyjNceLkpb-145" edge="1">
          <mxGeometry relative="1" as="geometry">
            <mxPoint x="90" y="1380" as="sourcePoint" />
            <mxPoint x="340" y="1200" as="targetPoint" />
          </mxGeometry>
        </mxCell>
        <mxCell id="mLm1G3g0rnV6FUSJvQgP-127" value="" style="endArrow=none;html=1;rounded=0;fontSize=12;startSize=8;endSize=8;curved=1;exitX=1;exitY=0.5;exitDx=0;exitDy=0;" parent="1" source="MoQPxjxc0kEaCH0tuq0D-22" edge="1">
          <mxGeometry relative="1" as="geometry">
            <mxPoint x="-70" y="1045" as="sourcePoint" />
            <mxPoint x="80" y="1730" as="targetPoint" />
          </mxGeometry>
        </mxCell>
        <mxCell id="mLm1G3g0rnV6FUSJvQgP-128" value="N" style="resizable=0;html=1;whiteSpace=wrap;align=right;verticalAlign=bottom;fontSize=16;" parent="mLm1G3g0rnV6FUSJvQgP-127" connectable="0" vertex="1">
          <mxGeometry x="1" relative="1" as="geometry">
            <mxPoint x="-40" y="-125" as="offset" />
          </mxGeometry>
        </mxCell>
        <mxCell id="mLm1G3g0rnV6FUSJvQgP-129" value="" style="endArrow=none;html=1;rounded=0;fontSize=12;startSize=8;endSize=8;curved=1;entryX=0;entryY=0.5;entryDx=0;entryDy=0;" parent="1" target="gzQTVmxqFmnyjNceLkpb-165" edge="1">
          <mxGeometry relative="1" as="geometry">
            <mxPoint x="80" y="1730" as="sourcePoint" />
            <mxPoint x="280" y="1700" as="targetPoint" />
          </mxGeometry>
        </mxCell>
        <mxCell id="mLm1G3g0rnV6FUSJvQgP-130" value="" style="endArrow=none;html=1;rounded=0;fontSize=12;startSize=8;endSize=8;curved=1;exitX=1;exitY=0.5;exitDx=0;exitDy=0;" parent="1" source="MoQPxjxc0kEaCH0tuq0D-22" edge="1">
          <mxGeometry relative="1" as="geometry">
            <mxPoint x="-60" y="1055" as="sourcePoint" />
            <mxPoint x="70" y="2080" as="targetPoint" />
          </mxGeometry>
        </mxCell>
        <mxCell id="mLm1G3g0rnV6FUSJvQgP-131" value="N" style="resizable=0;html=1;whiteSpace=wrap;align=right;verticalAlign=bottom;fontSize=16;" parent="mLm1G3g0rnV6FUSJvQgP-130" connectable="0" vertex="1">
          <mxGeometry x="1" relative="1" as="geometry">
            <mxPoint x="-30" y="-140" as="offset" />
          </mxGeometry>
        </mxCell>
        <mxCell id="mLm1G3g0rnV6FUSJvQgP-132" value="" style="endArrow=none;html=1;rounded=0;fontSize=12;startSize=8;endSize=8;curved=1;entryX=0;entryY=0.5;entryDx=0;entryDy=0;" parent="1" target="gzQTVmxqFmnyjNceLkpb-187" edge="1">
          <mxGeometry relative="1" as="geometry">
            <mxPoint x="70" y="2080" as="sourcePoint" />
            <mxPoint x="370" y="1810" as="targetPoint" />
          </mxGeometry>
        </mxCell>
        <mxCell id="mLm1G3g0rnV6FUSJvQgP-133" value="Numerical order" style="ellipse;whiteSpace=wrap;html=1;align=center;fontSize=16;" parent="1" vertex="1">
          <mxGeometry x="690" y="2130" width="125" height="50" as="geometry" />
        </mxCell>
        <mxCell id="mLm1G3g0rnV6FUSJvQgP-134" value="&lt;u&gt;IDBook&lt;/u&gt;" style="ellipse;whiteSpace=wrap;html=1;align=center;fontSize=16;" parent="1" vertex="1">
          <mxGeometry x="687.5" y="2187.5" width="115" height="45" as="geometry" />
        </mxCell>
        <mxCell id="mLm1G3g0rnV6FUSJvQgP-135" value="" style="endArrow=none;html=1;rounded=0;fontSize=12;startSize=8;endSize=8;curved=1;entryX=0;entryY=0.5;entryDx=0;entryDy=0;exitX=1;exitY=0.5;exitDx=0;exitDy=0;" parent="1" source="gzQTVmxqFmnyjNceLkpb-124" target="mLm1G3g0rnV6FUSJvQgP-133" edge="1">
          <mxGeometry relative="1" as="geometry">
            <mxPoint x="690" y="2070" as="sourcePoint" />
            <mxPoint x="1142.5" y="2310" as="targetPoint" />
          </mxGeometry>
        </mxCell>
        <mxCell id="mLm1G3g0rnV6FUSJvQgP-136" value="" style="endArrow=none;html=1;rounded=0;fontSize=12;startSize=8;endSize=8;curved=1;exitX=0;exitY=0.5;exitDx=0;exitDy=0;entryX=1;entryY=0.5;entryDx=0;entryDy=0;" parent="1" source="mLm1G3g0rnV6FUSJvQgP-134" target="gzQTVmxqFmnyjNceLkpb-124" edge="1">
          <mxGeometry relative="1" as="geometry">
            <mxPoint x="672.5" y="2215" as="sourcePoint" />
            <mxPoint x="710" y="2070" as="targetPoint" />
          </mxGeometry>
        </mxCell>
        <mxCell id="mLm1G3g0rnV6FUSJvQgP-137" value="" style="resizable=0;html=1;whiteSpace=wrap;align=right;verticalAlign=bottom;fontSize=16;" parent="1" connectable="0" vertex="1">
          <mxGeometry x="779.3846153846148" y="2080" as="geometry" />
        </mxCell>
        <mxCell id="P-Tuocs2N7Wp4AU8sqwJ-1" value="&lt;font style=&quot;font-size: 16px;&quot;&gt;Book import sheet&lt;/font&gt;" style="whiteSpace=wrap;html=1;align=center;" parent="1" vertex="1">
          <mxGeometry x="2020" y="1330" width="120" height="50" as="geometry" />
        </mxCell>
        <mxCell id="P-Tuocs2N7Wp4AU8sqwJ-2" value="&lt;font style=&quot;font-size: 16px;&quot;&gt;Import time&lt;/font&gt;" style="ellipse;whiteSpace=wrap;html=1;align=center;" parent="1" vertex="1">
          <mxGeometry x="2160" y="1365" width="110" height="40" as="geometry" />
        </mxCell>
        <mxCell id="P-Tuocs2N7Wp4AU8sqwJ-3" value="&lt;font style=&quot;font-size: 16px;&quot;&gt;Import date&lt;/font&gt;" style="ellipse;whiteSpace=wrap;html=1;align=center;" parent="1" vertex="1">
          <mxGeometry x="2160" y="1315" width="110" height="40" as="geometry" />
        </mxCell>
        <mxCell id="P-Tuocs2N7Wp4AU8sqwJ-4" value="&lt;font style=&quot;font-size: 16px;&quot;&gt;IDEmployee&lt;/font&gt;" style="ellipse;whiteSpace=wrap;html=1;align=center;" parent="1" vertex="1">
          <mxGeometry x="2160" y="1410" width="110" height="40" as="geometry" />
        </mxCell>
        <mxCell id="P-Tuocs2N7Wp4AU8sqwJ-5" value="&lt;u&gt;&lt;font style=&quot;font-size: 16px;&quot;&gt;IDImportSheet&lt;/font&gt;&lt;/u&gt;" style="ellipse;whiteSpace=wrap;html=1;align=center;" parent="1" vertex="1">
          <mxGeometry x="2160" y="1270" width="120" height="40" as="geometry" />
        </mxCell>
        <mxCell id="P-Tuocs2N7Wp4AU8sqwJ-6" value="&lt;font style=&quot;font-size: 16px;&quot;&gt;Total cost&lt;/font&gt;" style="ellipse;whiteSpace=wrap;html=1;align=center;" parent="1" vertex="1">
          <mxGeometry x="2160" y="1460" width="100" height="40" as="geometry" />
        </mxCell>
        <mxCell id="P-Tuocs2N7Wp4AU8sqwJ-7" value="" style="endArrow=none;html=1;rounded=0;entryX=0;entryY=0.5;entryDx=0;entryDy=0;exitX=1;exitY=0.5;exitDx=0;exitDy=0;" parent="1" source="P-Tuocs2N7Wp4AU8sqwJ-1" target="P-Tuocs2N7Wp4AU8sqwJ-5" edge="1">
          <mxGeometry relative="1" as="geometry">
            <mxPoint x="1710" y="1360" as="sourcePoint" />
            <mxPoint x="1870" y="1360" as="targetPoint" />
          </mxGeometry>
        </mxCell>
        <mxCell id="P-Tuocs2N7Wp4AU8sqwJ-8" value="" style="endArrow=none;html=1;rounded=0;entryX=0;entryY=0.5;entryDx=0;entryDy=0;exitX=1;exitY=0.5;exitDx=0;exitDy=0;" parent="1" source="P-Tuocs2N7Wp4AU8sqwJ-1" target="P-Tuocs2N7Wp4AU8sqwJ-3" edge="1">
          <mxGeometry relative="1" as="geometry">
            <mxPoint x="2000" y="1180" as="sourcePoint" />
            <mxPoint x="2040" y="1095" as="targetPoint" />
          </mxGeometry>
        </mxCell>
        <mxCell id="P-Tuocs2N7Wp4AU8sqwJ-10" value="" style="endArrow=none;html=1;rounded=0;entryX=0;entryY=0.5;entryDx=0;entryDy=0;exitX=1;exitY=0.5;exitDx=0;exitDy=0;" parent="1" source="P-Tuocs2N7Wp4AU8sqwJ-1" target="P-Tuocs2N7Wp4AU8sqwJ-2" edge="1">
          <mxGeometry relative="1" as="geometry">
            <mxPoint x="2000" y="1180" as="sourcePoint" />
            <mxPoint x="2040" y="1148" as="targetPoint" />
          </mxGeometry>
        </mxCell>
        <mxCell id="P-Tuocs2N7Wp4AU8sqwJ-11" value="" style="endArrow=none;html=1;rounded=0;entryX=0;entryY=0.5;entryDx=0;entryDy=0;exitX=1;exitY=0.5;exitDx=0;exitDy=0;" parent="1" source="P-Tuocs2N7Wp4AU8sqwJ-1" target="P-Tuocs2N7Wp4AU8sqwJ-4" edge="1">
          <mxGeometry relative="1" as="geometry">
            <mxPoint x="2010" y="1190" as="sourcePoint" />
            <mxPoint x="2050" y="1158" as="targetPoint" />
          </mxGeometry>
        </mxCell>
        <mxCell id="P-Tuocs2N7Wp4AU8sqwJ-12" value="" style="endArrow=none;html=1;rounded=0;entryX=0;entryY=0.5;entryDx=0;entryDy=0;exitX=1;exitY=0.5;exitDx=0;exitDy=0;" parent="1" source="P-Tuocs2N7Wp4AU8sqwJ-1" target="P-Tuocs2N7Wp4AU8sqwJ-6" edge="1">
          <mxGeometry relative="1" as="geometry">
            <mxPoint x="2000" y="1180" as="sourcePoint" />
            <mxPoint x="2040" y="1250" as="targetPoint" />
          </mxGeometry>
        </mxCell>
        <mxCell id="P-Tuocs2N7Wp4AU8sqwJ-13" value="contains" style="shape=rhombus;perimeter=rhombusPerimeter;whiteSpace=wrap;html=1;align=center;fontSize=16;rotation=0;" parent="1" vertex="1">
          <mxGeometry x="1620" y="2120" width="120" height="60" as="geometry" />
        </mxCell>
        <mxCell id="P-Tuocs2N7Wp4AU8sqwJ-14" value="" style="endArrow=none;html=1;rounded=0;fontSize=12;startSize=8;endSize=8;curved=1;entryX=0;entryY=0.5;entryDx=0;entryDy=0;" parent="1" target="P-Tuocs2N7Wp4AU8sqwJ-13" edge="1">
          <mxGeometry relative="1" as="geometry">
            <mxPoint x="840" y="2150" as="sourcePoint" />
            <mxPoint x="1650" y="2385" as="targetPoint" />
          </mxGeometry>
        </mxCell>
        <mxCell id="P-Tuocs2N7Wp4AU8sqwJ-15" value="1" style="resizable=0;html=1;whiteSpace=wrap;align=right;verticalAlign=bottom;fontSize=16;" parent="P-Tuocs2N7Wp4AU8sqwJ-14" connectable="0" vertex="1">
          <mxGeometry x="1" relative="1" as="geometry">
            <mxPoint x="-242" as="offset" />
          </mxGeometry>
        </mxCell>
        <mxCell id="P-Tuocs2N7Wp4AU8sqwJ-16" value="" style="endArrow=none;html=1;rounded=0;fontSize=12;startSize=8;endSize=8;curved=1;entryX=1;entryY=0.5;entryDx=0;entryDy=0;" parent="1" target="gzQTVmxqFmnyjNceLkpb-124" edge="1">
          <mxGeometry relative="1" as="geometry">
            <mxPoint x="840" y="2150" as="sourcePoint" />
            <mxPoint x="850.5" y="2195" as="targetPoint" />
          </mxGeometry>
        </mxCell>
        <mxCell id="P-Tuocs2N7Wp4AU8sqwJ-17" value="" style="resizable=0;html=1;whiteSpace=wrap;align=right;verticalAlign=bottom;fontSize=16;" parent="1" connectable="0" vertex="1">
          <mxGeometry x="941.8846153846148" y="2140" as="geometry" />
        </mxCell>
        <mxCell id="P-Tuocs2N7Wp4AU8sqwJ-19" value="" style="endArrow=none;html=1;rounded=0;entryX=0;entryY=0.5;entryDx=0;entryDy=0;exitX=1;exitY=0.5;exitDx=0;exitDy=0;" parent="1" source="P-Tuocs2N7Wp4AU8sqwJ-13" target="P-Tuocs2N7Wp4AU8sqwJ-1" edge="1">
          <mxGeometry relative="1" as="geometry">
            <mxPoint x="2030" y="1630" as="sourcePoint" />
            <mxPoint x="2270" y="1420" as="targetPoint" />
          </mxGeometry>
        </mxCell>
        <mxCell id="P-Tuocs2N7Wp4AU8sqwJ-20" value="1" style="resizable=0;html=1;whiteSpace=wrap;align=right;verticalAlign=bottom;" parent="P-Tuocs2N7Wp4AU8sqwJ-19" connectable="0" vertex="1">
          <mxGeometry x="1" relative="1" as="geometry">
            <mxPoint x="-120" y="405" as="offset" />
          </mxGeometry>
        </mxCell>
        <mxCell id="P-Tuocs2N7Wp4AU8sqwJ-21" value="" style="endArrow=none;html=1;rounded=0;exitX=1;exitY=0.5;exitDx=0;exitDy=0;" parent="1" source="MoQPxjxc0kEaCH0tuq0D-22" edge="1">
          <mxGeometry relative="1" as="geometry">
            <mxPoint x="310" y="1060" as="sourcePoint" />
            <mxPoint x="40" y="920" as="targetPoint" />
          </mxGeometry>
        </mxCell>
        <mxCell id="P-Tuocs2N7Wp4AU8sqwJ-22" value="creates" style="shape=rhombus;perimeter=rhombusPerimeter;whiteSpace=wrap;html=1;align=center;" parent="1" vertex="1">
          <mxGeometry x="1740" y="888.75" width="120" height="60" as="geometry" />
        </mxCell>
        <mxCell id="P-Tuocs2N7Wp4AU8sqwJ-25" value="" style="endArrow=none;html=1;rounded=0;exitX=1;exitY=0.5;exitDx=0;exitDy=0;entryX=0;entryY=0.5;entryDx=0;entryDy=0;" parent="1" source="P-Tuocs2N7Wp4AU8sqwJ-22" target="P-Tuocs2N7Wp4AU8sqwJ-1" edge="1">
          <mxGeometry relative="1" as="geometry">
            <mxPoint x="2020" y="1130" as="sourcePoint" />
            <mxPoint x="2180" y="1130" as="targetPoint" />
          </mxGeometry>
        </mxCell>
        <mxCell id="P-Tuocs2N7Wp4AU8sqwJ-26" value="N" style="resizable=0;html=1;whiteSpace=wrap;align=right;verticalAlign=bottom;" parent="P-Tuocs2N7Wp4AU8sqwJ-25" connectable="0" vertex="1">
          <mxGeometry x="1" relative="1" as="geometry">
            <mxPoint x="-130" y="-185" as="offset" />
          </mxGeometry>
        </mxCell>
        <mxCell id="P-Tuocs2N7Wp4AU8sqwJ-28" value="" style="endArrow=none;html=1;rounded=0;entryX=0;entryY=0.5;entryDx=0;entryDy=0;" parent="1" target="P-Tuocs2N7Wp4AU8sqwJ-22" edge="1">
          <mxGeometry relative="1" as="geometry">
            <mxPoint x="40" y="920" as="sourcePoint" />
            <mxPoint x="1170" y="900" as="targetPoint" />
          </mxGeometry>
        </mxCell>
        <mxCell id="P-Tuocs2N7Wp4AU8sqwJ-29" value="1" style="resizable=0;html=1;whiteSpace=wrap;align=right;verticalAlign=bottom;" parent="P-Tuocs2N7Wp4AU8sqwJ-28" connectable="0" vertex="1">
          <mxGeometry x="1" relative="1" as="geometry">
            <mxPoint x="-785" y="20" as="offset" />
          </mxGeometry>
        </mxCell>
        <mxCell id="P-Tuocs2N7Wp4AU8sqwJ-31" value="&lt;font style=&quot;font-size: 16px;&quot;&gt;&amp;nbsp;List of import sheets&lt;/font&gt;" style="whiteSpace=wrap;html=1;align=center;" parent="1" vertex="1">
          <mxGeometry x="2017.5" y="1700" width="125" height="45" as="geometry" />
        </mxCell>
        <mxCell id="P-Tuocs2N7Wp4AU8sqwJ-32" value="Numerical order" style="ellipse;whiteSpace=wrap;html=1;align=center;fontSize=16;" parent="1" vertex="1">
          <mxGeometry x="2167.5" y="1715" width="125" height="50" as="geometry" />
        </mxCell>
        <mxCell id="P-Tuocs2N7Wp4AU8sqwJ-33" value="&lt;u&gt;IDAuthor&lt;/u&gt;" style="ellipse;whiteSpace=wrap;html=1;align=center;fontSize=16;" parent="1" vertex="1">
          <mxGeometry x="2167.5" y="1770" width="115" height="45" as="geometry" />
        </mxCell>
        <mxCell id="P-Tuocs2N7Wp4AU8sqwJ-34" value="" style="endArrow=none;html=1;rounded=0;fontSize=12;startSize=8;endSize=8;curved=1;entryX=0;entryY=0.5;entryDx=0;entryDy=0;exitX=1;exitY=0.5;exitDx=0;exitDy=0;" parent="1" source="P-Tuocs2N7Wp4AU8sqwJ-31" target="P-Tuocs2N7Wp4AU8sqwJ-32" edge="1">
          <mxGeometry relative="1" as="geometry">
            <mxPoint x="2160" y="1720" as="sourcePoint" />
            <mxPoint x="2622.5" y="1945" as="targetPoint" />
          </mxGeometry>
        </mxCell>
        <mxCell id="P-Tuocs2N7Wp4AU8sqwJ-35" value="" style="endArrow=none;html=1;rounded=0;fontSize=12;startSize=8;endSize=8;curved=1;exitX=0;exitY=0.5;exitDx=0;exitDy=0;entryX=1;entryY=0.5;entryDx=0;entryDy=0;" parent="1" source="P-Tuocs2N7Wp4AU8sqwJ-33" target="P-Tuocs2N7Wp4AU8sqwJ-31" edge="1">
          <mxGeometry relative="1" as="geometry">
            <mxPoint x="2152.5" y="1850" as="sourcePoint" />
            <mxPoint x="2130" y="1790" as="targetPoint" />
          </mxGeometry>
        </mxCell>
        <mxCell id="P-Tuocs2N7Wp4AU8sqwJ-37" value="contains" style="shape=rhombus;perimeter=rhombusPerimeter;whiteSpace=wrap;html=1;align=center;rotation=90;" parent="1" vertex="1">
          <mxGeometry x="2020" y="1520" width="120" height="60" as="geometry" />
        </mxCell>
        <mxCell id="P-Tuocs2N7Wp4AU8sqwJ-41" value="" style="endArrow=none;html=1;rounded=0;entryX=0.5;entryY=1;entryDx=0;entryDy=0;exitX=0;exitY=0.5;exitDx=0;exitDy=0;" parent="1" source="P-Tuocs2N7Wp4AU8sqwJ-37" target="P-Tuocs2N7Wp4AU8sqwJ-1" edge="1">
          <mxGeometry relative="1" as="geometry">
            <mxPoint x="1950" y="1480" as="sourcePoint" />
            <mxPoint x="2110" y="1480" as="targetPoint" />
          </mxGeometry>
        </mxCell>
        <mxCell id="P-Tuocs2N7Wp4AU8sqwJ-42" value="N" style="resizable=0;html=1;whiteSpace=wrap;align=right;verticalAlign=bottom;" parent="P-Tuocs2N7Wp4AU8sqwJ-41" connectable="0" vertex="1">
          <mxGeometry x="1" relative="1" as="geometry">
            <mxPoint y="70" as="offset" />
          </mxGeometry>
        </mxCell>
        <mxCell id="P-Tuocs2N7Wp4AU8sqwJ-43" value="" style="endArrow=none;html=1;rounded=0;exitX=1;exitY=0.5;exitDx=0;exitDy=0;entryX=0.5;entryY=0;entryDx=0;entryDy=0;" parent="1" source="P-Tuocs2N7Wp4AU8sqwJ-37" target="P-Tuocs2N7Wp4AU8sqwJ-31" edge="1">
          <mxGeometry relative="1" as="geometry">
            <mxPoint x="2010" y="1700" as="sourcePoint" />
            <mxPoint x="2170" y="1700" as="targetPoint" />
          </mxGeometry>
        </mxCell>
        <mxCell id="P-Tuocs2N7Wp4AU8sqwJ-44" value="1" style="resizable=0;html=1;whiteSpace=wrap;align=right;verticalAlign=bottom;" parent="P-Tuocs2N7Wp4AU8sqwJ-43" connectable="0" vertex="1">
          <mxGeometry x="1" relative="1" as="geometry">
            <mxPoint y="-35" as="offset" />
          </mxGeometry>
        </mxCell>
        <mxCell id="P-Tuocs2N7Wp4AU8sqwJ-45" value="&lt;font style=&quot;font-size: 16px;&quot;&gt;Bill&lt;/font&gt;" style="whiteSpace=wrap;html=1;align=center;" parent="1" vertex="1">
          <mxGeometry x="2310" y="895" width="100" height="50" as="geometry" />
        </mxCell>
        <mxCell id="P-Tuocs2N7Wp4AU8sqwJ-46" value="&lt;u&gt;&lt;font style=&quot;font-size: 16px;&quot;&gt;IDBill&lt;/font&gt;&lt;/u&gt;" style="ellipse;whiteSpace=wrap;html=1;align=center;" parent="1" vertex="1">
          <mxGeometry x="2202.5" y="930" width="80" height="40" as="geometry" />
        </mxCell>
        <mxCell id="P-Tuocs2N7Wp4AU8sqwJ-47" value="" style="endArrow=none;html=1;rounded=0;entryX=0.5;entryY=1;entryDx=0;entryDy=0;" parent="1" target="P-Tuocs2N7Wp4AU8sqwJ-45" edge="1">
          <mxGeometry relative="1" as="geometry">
            <mxPoint x="2360" y="1640" as="sourcePoint" />
            <mxPoint x="2360" y="950" as="targetPoint" />
          </mxGeometry>
        </mxCell>
        <mxCell id="P-Tuocs2N7Wp4AU8sqwJ-48" value="1" style="resizable=0;html=1;whiteSpace=wrap;align=right;verticalAlign=bottom;" parent="P-Tuocs2N7Wp4AU8sqwJ-47" connectable="0" vertex="1">
          <mxGeometry x="1" relative="1" as="geometry">
            <mxPoint x="-30" y="814" as="offset" />
          </mxGeometry>
        </mxCell>
        <mxCell id="P-Tuocs2N7Wp4AU8sqwJ-49" value="" style="endArrow=none;html=1;rounded=0;" parent="1" edge="1">
          <mxGeometry relative="1" as="geometry">
            <mxPoint x="2160" y="2150" as="sourcePoint" />
            <mxPoint x="2360" y="1640" as="targetPoint" />
          </mxGeometry>
        </mxCell>
        <mxCell id="P-Tuocs2N7Wp4AU8sqwJ-50" value="" style="endArrow=none;html=1;rounded=0;exitX=1;exitY=0.5;exitDx=0;exitDy=0;" parent="1" source="P-Tuocs2N7Wp4AU8sqwJ-13" edge="1">
          <mxGeometry relative="1" as="geometry">
            <mxPoint x="2510" y="1830" as="sourcePoint" />
            <mxPoint x="2160" y="2150" as="targetPoint" />
          </mxGeometry>
        </mxCell>
        <mxCell id="P-Tuocs2N7Wp4AU8sqwJ-51" value="IDCustomer" style="ellipse;whiteSpace=wrap;html=1;align=center;fontSize=16;" parent="1" vertex="1">
          <mxGeometry x="2160" y="975" width="120" height="40" as="geometry" />
        </mxCell>
        <mxCell id="P-Tuocs2N7Wp4AU8sqwJ-52" value="&lt;font style=&quot;font-size: 16px;&quot;&gt;Total price&lt;/font&gt;" style="ellipse;whiteSpace=wrap;html=1;align=center;" parent="1" vertex="1">
          <mxGeometry x="2180" y="1025" width="100" height="40" as="geometry" />
        </mxCell>
        <mxCell id="P-Tuocs2N7Wp4AU8sqwJ-53" value="" style="endArrow=none;html=1;rounded=0;entryX=0;entryY=0.5;entryDx=0;entryDy=0;exitX=1;exitY=0.5;exitDx=0;exitDy=0;" parent="1" source="P-Tuocs2N7Wp4AU8sqwJ-46" target="P-Tuocs2N7Wp4AU8sqwJ-45" edge="1">
          <mxGeometry relative="1" as="geometry">
            <mxPoint x="1750" y="1010" as="sourcePoint" />
            <mxPoint x="1910" y="1010" as="targetPoint" />
          </mxGeometry>
        </mxCell>
        <mxCell id="P-Tuocs2N7Wp4AU8sqwJ-54" value="" style="endArrow=none;html=1;rounded=0;entryX=0;entryY=0.5;entryDx=0;entryDy=0;exitX=1;exitY=0.5;exitDx=0;exitDy=0;" parent="1" source="P-Tuocs2N7Wp4AU8sqwJ-51" target="P-Tuocs2N7Wp4AU8sqwJ-45" edge="1">
          <mxGeometry relative="1" as="geometry">
            <mxPoint x="1750" y="1010" as="sourcePoint" />
            <mxPoint x="1910" y="1010" as="targetPoint" />
          </mxGeometry>
        </mxCell>
        <mxCell id="P-Tuocs2N7Wp4AU8sqwJ-55" value="" style="endArrow=none;html=1;rounded=0;entryX=0;entryY=0.5;entryDx=0;entryDy=0;exitX=1;exitY=0.5;exitDx=0;exitDy=0;" parent="1" source="P-Tuocs2N7Wp4AU8sqwJ-52" target="P-Tuocs2N7Wp4AU8sqwJ-45" edge="1">
          <mxGeometry relative="1" as="geometry">
            <mxPoint x="1750" y="1010" as="sourcePoint" />
            <mxPoint x="1910" y="1010" as="targetPoint" />
          </mxGeometry>
        </mxCell>
        <mxCell id="P-Tuocs2N7Wp4AU8sqwJ-56" value="" style="endArrow=none;html=1;rounded=0;entryX=0;entryY=0.5;entryDx=0;entryDy=0;exitX=1;exitY=0.5;exitDx=0;exitDy=0;" parent="1" source="P-Tuocs2N7Wp4AU8sqwJ-22" target="P-Tuocs2N7Wp4AU8sqwJ-45" edge="1">
          <mxGeometry relative="1" as="geometry">
            <mxPoint x="1640" y="1010" as="sourcePoint" />
            <mxPoint x="1840" y="1010" as="targetPoint" />
          </mxGeometry>
        </mxCell>
        <mxCell id="P-Tuocs2N7Wp4AU8sqwJ-57" value="N" style="resizable=0;html=1;whiteSpace=wrap;align=right;verticalAlign=bottom;" parent="P-Tuocs2N7Wp4AU8sqwJ-56" connectable="0" vertex="1">
          <mxGeometry x="1" relative="1" as="geometry">
            <mxPoint x="-230" y="-1" as="offset" />
          </mxGeometry>
        </mxCell>
        <mxCell id="P-Tuocs2N7Wp4AU8sqwJ-58" value="Has" style="shape=rhombus;perimeter=rhombusPerimeter;whiteSpace=wrap;html=1;align=center;" parent="1" vertex="1">
          <mxGeometry x="1740" y="770" width="120" height="60" as="geometry" />
        </mxCell>
        <mxCell id="P-Tuocs2N7Wp4AU8sqwJ-59" value="" style="endArrow=none;html=1;rounded=0;exitX=1;exitY=0.5;exitDx=0;exitDy=0;" parent="1" source="P-Tuocs2N7Wp4AU8sqwJ-58" edge="1">
          <mxGeometry relative="1" as="geometry">
            <mxPoint x="1740" y="1050" as="sourcePoint" />
            <mxPoint x="2250" y="800" as="targetPoint" />
          </mxGeometry>
        </mxCell>
        <mxCell id="P-Tuocs2N7Wp4AU8sqwJ-60" value="N" style="resizable=0;html=1;whiteSpace=wrap;align=right;verticalAlign=bottom;" parent="P-Tuocs2N7Wp4AU8sqwJ-59" connectable="0" vertex="1">
          <mxGeometry x="1" relative="1" as="geometry">
            <mxPoint x="-170" as="offset" />
          </mxGeometry>
        </mxCell>
        <mxCell id="P-Tuocs2N7Wp4AU8sqwJ-61" value="" style="endArrow=none;html=1;rounded=0;entryX=0;entryY=0.5;entryDx=0;entryDy=0;exitX=1;exitY=0.5;exitDx=0;exitDy=0;" parent="1" source="gzQTVmxqFmnyjNceLkpb-125" target="P-Tuocs2N7Wp4AU8sqwJ-58" edge="1">
          <mxGeometry relative="1" as="geometry">
            <mxPoint x="1270" y="900" as="sourcePoint" />
            <mxPoint x="1430" y="900" as="targetPoint" />
          </mxGeometry>
        </mxCell>
        <mxCell id="P-Tuocs2N7Wp4AU8sqwJ-62" value="1" style="resizable=0;html=1;whiteSpace=wrap;align=right;verticalAlign=bottom;" parent="P-Tuocs2N7Wp4AU8sqwJ-61" connectable="0" vertex="1">
          <mxGeometry x="1" relative="1" as="geometry">
            <mxPoint x="-460" as="offset" />
          </mxGeometry>
        </mxCell>
        <mxCell id="P-Tuocs2N7Wp4AU8sqwJ-63" value="" style="endArrow=none;html=1;rounded=0;entryX=0;entryY=0.5;entryDx=0;entryDy=0;" parent="1" target="P-Tuocs2N7Wp4AU8sqwJ-45" edge="1">
          <mxGeometry relative="1" as="geometry">
            <mxPoint x="2250" y="800" as="sourcePoint" />
            <mxPoint x="2050" y="860" as="targetPoint" />
          </mxGeometry>
        </mxCell>
        <mxCell id="P-Tuocs2N7Wp4AU8sqwJ-64" value="&lt;font style=&quot;font-size: 16px;&quot;&gt;List of bills&lt;/font&gt;" style="whiteSpace=wrap;html=1;align=center;" parent="1" vertex="1">
          <mxGeometry x="2700" y="890" width="110" height="57.5" as="geometry" />
        </mxCell>
        <mxCell id="P-Tuocs2N7Wp4AU8sqwJ-65" value="Numerical order" style="ellipse;whiteSpace=wrap;html=1;align=center;fontSize=16;" parent="1" vertex="1">
          <mxGeometry x="2834.5" y="910" width="125" height="50" as="geometry" />
        </mxCell>
        <mxCell id="P-Tuocs2N7Wp4AU8sqwJ-66" value="&lt;u&gt;IDBill&lt;/u&gt;" style="ellipse;whiteSpace=wrap;html=1;align=center;fontSize=16;" parent="1" vertex="1">
          <mxGeometry x="2834.5" y="965" width="115" height="45" as="geometry" />
        </mxCell>
        <mxCell id="P-Tuocs2N7Wp4AU8sqwJ-67" value="" style="endArrow=none;html=1;rounded=0;fontSize=12;startSize=8;endSize=8;curved=1;entryX=0;entryY=0.5;entryDx=0;entryDy=0;exitX=1;exitY=0.5;exitDx=0;exitDy=0;" parent="1" source="P-Tuocs2N7Wp4AU8sqwJ-64" target="P-Tuocs2N7Wp4AU8sqwJ-65" edge="1">
          <mxGeometry relative="1" as="geometry">
            <mxPoint x="2810" y="918" as="sourcePoint" />
            <mxPoint x="3289.5" y="1140" as="targetPoint" />
          </mxGeometry>
        </mxCell>
        <mxCell id="P-Tuocs2N7Wp4AU8sqwJ-68" value="" style="endArrow=none;html=1;rounded=0;fontSize=12;startSize=8;endSize=8;curved=1;exitX=0;exitY=0.5;exitDx=0;exitDy=0;entryX=1;entryY=0.5;entryDx=0;entryDy=0;" parent="1" source="P-Tuocs2N7Wp4AU8sqwJ-66" target="P-Tuocs2N7Wp4AU8sqwJ-64" edge="1">
          <mxGeometry relative="1" as="geometry">
            <mxPoint x="2819.5" y="1045" as="sourcePoint" />
            <mxPoint x="2810" y="918" as="targetPoint" />
          </mxGeometry>
        </mxCell>
        <mxCell id="P-Tuocs2N7Wp4AU8sqwJ-69" value="Total price" style="ellipse;whiteSpace=wrap;html=1;align=center;fontSize=16;" parent="1" vertex="1">
          <mxGeometry x="2834.5" y="1065" width="125" height="50" as="geometry" />
        </mxCell>
        <mxCell id="P-Tuocs2N7Wp4AU8sqwJ-70" value="IDCustomer" style="ellipse;whiteSpace=wrap;html=1;align=center;fontSize=16;" parent="1" vertex="1">
          <mxGeometry x="2834.5" y="1015" width="115" height="45" as="geometry" />
        </mxCell>
        <mxCell id="P-Tuocs2N7Wp4AU8sqwJ-71" value="" style="endArrow=none;html=1;rounded=0;fontSize=12;startSize=8;endSize=8;curved=1;exitX=0;exitY=0.5;exitDx=0;exitDy=0;entryX=1;entryY=0.5;entryDx=0;entryDy=0;" parent="1" source="P-Tuocs2N7Wp4AU8sqwJ-70" target="P-Tuocs2N7Wp4AU8sqwJ-64" edge="1">
          <mxGeometry relative="1" as="geometry">
            <mxPoint x="2844" y="998" as="sourcePoint" />
            <mxPoint x="2820" y="929" as="targetPoint" />
          </mxGeometry>
        </mxCell>
        <mxCell id="P-Tuocs2N7Wp4AU8sqwJ-72" value="" style="endArrow=none;html=1;rounded=0;fontSize=12;startSize=8;endSize=8;curved=1;exitX=0;exitY=0.5;exitDx=0;exitDy=0;entryX=1;entryY=0.5;entryDx=0;entryDy=0;" parent="1" source="P-Tuocs2N7Wp4AU8sqwJ-69" target="P-Tuocs2N7Wp4AU8sqwJ-64" edge="1">
          <mxGeometry relative="1" as="geometry">
            <mxPoint x="2844" y="1048" as="sourcePoint" />
            <mxPoint x="2820" y="929" as="targetPoint" />
          </mxGeometry>
        </mxCell>
        <mxCell id="P-Tuocs2N7Wp4AU8sqwJ-73" value="containss" style="shape=rhombus;perimeter=rhombusPerimeter;whiteSpace=wrap;html=1;align=center;" parent="1" vertex="1">
          <mxGeometry x="2490" y="888.75" width="120" height="60" as="geometry" />
        </mxCell>
        <mxCell id="P-Tuocs2N7Wp4AU8sqwJ-74" value="" style="endArrow=none;html=1;rounded=0;exitX=1;exitY=0.5;exitDx=0;exitDy=0;entryX=0;entryY=0.5;entryDx=0;entryDy=0;" parent="1" source="P-Tuocs2N7Wp4AU8sqwJ-73" target="P-Tuocs2N7Wp4AU8sqwJ-64" edge="1">
          <mxGeometry relative="1" as="geometry">
            <mxPoint x="2600" y="1060" as="sourcePoint" />
            <mxPoint x="2760" y="1060" as="targetPoint" />
          </mxGeometry>
        </mxCell>
        <mxCell id="P-Tuocs2N7Wp4AU8sqwJ-75" value="1" style="resizable=0;html=1;whiteSpace=wrap;align=right;verticalAlign=bottom;" parent="P-Tuocs2N7Wp4AU8sqwJ-74" connectable="0" vertex="1">
          <mxGeometry x="1" relative="1" as="geometry">
            <mxPoint x="-40" as="offset" />
          </mxGeometry>
        </mxCell>
        <mxCell id="P-Tuocs2N7Wp4AU8sqwJ-76" value="" style="endArrow=none;html=1;rounded=0;exitX=1;exitY=0.5;exitDx=0;exitDy=0;entryX=0;entryY=0.5;entryDx=0;entryDy=0;" parent="1" source="P-Tuocs2N7Wp4AU8sqwJ-45" target="P-Tuocs2N7Wp4AU8sqwJ-73" edge="1">
          <mxGeometry relative="1" as="geometry">
            <mxPoint x="2600" y="1060" as="sourcePoint" />
            <mxPoint x="2760" y="1060" as="targetPoint" />
          </mxGeometry>
        </mxCell>
        <mxCell id="P-Tuocs2N7Wp4AU8sqwJ-77" value="N" style="resizable=0;html=1;whiteSpace=wrap;align=right;verticalAlign=bottom;" parent="P-Tuocs2N7Wp4AU8sqwJ-76" connectable="0" vertex="1">
          <mxGeometry x="1" relative="1" as="geometry">
            <mxPoint x="-30" as="offset" />
          </mxGeometry>
        </mxCell>
      </root>
    </mxGraphModel>
  </diagram>
</mxfile>
